<svg width="152" height="46" viewBox="0 0 152 46" fill="none" xmlns="http://www.w3.org/2000/svg">
<g clip-path="url(#clip0)">
<path d="M44.9983 38.0718V13.1041C45.0608 10.8623 43.2942 8.99428 41.0524 8.93179C40.9593 8.92916 40.866 8.92979 40.773 8.93357H31.8285V7.23257C31.8891 4.8998 30.0472 2.95954 27.7144 2.89893C27.6773 2.89799 27.6403 2.89746 27.6033 2.89746H17.3967C15.063 2.89662 13.1707 4.78773 13.1699 7.12134C13.1699 7.15842 13.1704 7.19549 13.1714 7.23247V8.93357H4.22695C1.98608 8.84188 0.0951791 10.5839 0.0033807 12.8247C-0.00040047 12.9178 -0.00103067 13.0109 0.00159515 13.1041V38.0718C-0.0590086 40.4046 1.78295 42.3448 4.11572 42.4054C4.15279 42.4064 4.18987 42.4069 4.22684 42.4069H40.773C43.1066 42.4077 44.999 40.5166 44.9997 38.183C44.9998 38.1459 44.9993 38.1089 44.9983 38.0718ZM17.284 5.09548C17.3214 5.09348 17.359 5.09243 17.3967 5.09253H27.6033C28.7246 5.09085 29.6349 5.99854 29.6366 7.11987C29.6367 7.15747 29.6357 7.19507 29.6337 7.23257V8.93368H15.3664V7.23257C15.3058 6.11293 16.1643 5.15608 17.284 5.09548ZM40.8858 40.209C40.8483 40.211 40.8107 40.212 40.7731 40.2119H4.22695C3.10562 40.2136 2.1953 39.3059 2.19362 38.1846C2.19352 38.147 2.19457 38.1094 2.19656 38.0719V30.8834C2.7984 31.2761 3.50915 31.4682 4.22695 31.4322H15.3664V34.6148C15.4679 35.2763 16.0156 35.7784 16.6834 35.8221H28.3167C28.9845 35.7784 29.5321 35.2763 29.6337 34.6148V31.4322H40.7731C41.4909 31.4683 42.2016 31.2762 42.8035 30.8834V38.0719C42.864 39.1915 42.0054 40.1484 40.8858 40.209ZM17.5613 33.627V28.1396H27.4387V33.627H17.5613ZM40.8858 29.2341C40.8483 29.2361 40.8107 29.2372 40.7731 29.2371H29.6336V26.8775C29.6336 26.2739 28.9202 25.9446 28.3166 25.9446H16.6834C16.0798 25.9446 15.3664 26.2739 15.3664 26.8775V29.2371H4.22695C3.10562 29.2388 2.1953 28.3311 2.19362 27.2097C2.19352 27.1721 2.19457 27.1345 2.19656 27.097V13.1041C2.13176 12.0757 2.91288 11.1896 3.94126 11.1248C4.03642 11.1188 4.132 11.12 4.22695 11.1286H40.7731C41.7993 11.0357 42.7065 11.7922 42.7995 12.8184C42.8081 12.9134 42.8094 13.0089 42.8034 13.1041V27.0969C42.864 28.2167 42.0054 29.1735 40.8858 29.2341Z" fill="white"/>
</g>
<path d="M84.4678 25.2646C84.4678 26.4893 84.0723 27.418 83.2812 28.0508C82.4961 28.6836 81.4062 29 80.0117 29H75.2832V16.2031H79.6514C81.0635 16.2031 82.168 16.4844 82.9648 17.0469C83.7676 17.6035 84.1689 18.4766 84.1689 19.666C84.1689 20.252 84.0107 20.7852 83.6943 21.2656C83.3779 21.7402 82.9121 22.1035 82.2969 22.3555C83.041 22.543 83.5889 22.9092 83.9404 23.4541C84.292 23.999 84.4678 24.6025 84.4678 25.2646ZM79.6514 18.0312H77.5508V21.5996H79.6777C80.3867 21.5996 80.9346 21.4443 81.3213 21.1338C81.708 20.8232 81.9014 20.3838 81.9014 19.8154C81.9014 19.1885 81.7168 18.7344 81.3477 18.4531C80.9844 18.1719 80.4189 18.0312 79.6514 18.0312ZM82.209 25.2559C82.209 24.6406 82.0449 24.1543 81.7168 23.7969C81.3887 23.4336 80.8525 23.252 80.1084 23.252H77.5508V27.1807H80.0117C80.7383 27.1807 81.2861 27.002 81.6553 26.6445C82.0244 26.2871 82.209 25.8242 82.209 25.2559Z" fill="white"/>
<path d="M92.887 19.4902H95.0667V29H93.01L92.9573 28.042C92.6585 28.3994 92.2893 28.6777 91.8499 28.877C91.4104 29.0762 90.8889 29.1758 90.2854 29.1758C89.3479 29.1758 88.5891 28.9004 88.0091 28.3496C87.429 27.7988 87.1389 26.8936 87.1389 25.6338V19.4902H89.3186V25.6514C89.3186 26.3135 89.468 26.7705 89.7669 27.0225C90.0657 27.2686 90.4202 27.3916 90.8304 27.3916C91.3694 27.3916 91.803 27.2949 92.1311 27.1016C92.4651 26.9023 92.7171 26.6357 92.887 26.3018V19.4902Z" fill="white"/>
<path d="M103.24 26.4072C103.24 26.208 103.187 26.0264 103.082 25.8623C102.976 25.6924 102.777 25.54 102.484 25.4053C102.191 25.2705 101.763 25.1416 101.201 25.0186C100.193 24.8076 99.3726 24.4854 98.7398 24.0518C98.1129 23.6182 97.7994 23 97.7994 22.1973C97.7994 21.6816 97.9459 21.207 98.2388 20.7734C98.5377 20.334 98.9625 19.9824 99.5132 19.7188C100.064 19.4492 100.72 19.3145 101.482 19.3145C102.279 19.3145 102.964 19.4492 103.539 19.7188C104.113 19.9824 104.552 20.3428 104.857 20.7998C105.168 21.251 105.323 21.7637 105.323 22.3379H103.143C103.143 21.9629 103.003 21.6348 102.721 21.3535C102.446 21.0664 102.03 20.9229 101.473 20.9229C100.952 20.9229 100.562 21.043 100.304 21.2832C100.046 21.5176 99.9175 21.79 99.9175 22.1006C99.9175 22.4111 100.049 22.6631 100.313 22.8564C100.583 23.0439 101.095 23.2168 101.851 23.375C102.941 23.6035 103.799 23.9316 104.426 24.3594C105.059 24.7812 105.376 25.4287 105.376 26.3018C105.376 26.8584 105.214 27.3535 104.892 27.7871C104.576 28.2207 104.128 28.5605 103.547 28.8066C102.967 29.0527 102.288 29.1758 101.508 29.1758C100.635 29.1758 99.9 29.0205 99.3023 28.71C98.7046 28.3994 98.2505 28.001 97.94 27.5146C97.6353 27.0283 97.483 26.5273 97.483 26.0117H99.5836C99.6129 26.5801 99.8267 26.9814 100.225 27.2158C100.624 27.4502 101.06 27.5674 101.535 27.5674C102.091 27.5674 102.513 27.459 102.8 27.2422C103.093 27.0195 103.24 26.7412 103.24 26.4072Z" fill="white"/>
<path d="M107.932 17.0029C107.932 16.6689 108.041 16.3936 108.258 16.1768C108.474 15.9541 108.776 15.8428 109.163 15.8428C109.55 15.8428 109.854 15.9541 110.077 16.1768C110.3 16.3936 110.411 16.6689 110.411 17.0029C110.411 17.3311 110.3 17.6064 110.077 17.8291C109.854 18.0459 109.55 18.1543 109.163 18.1543C108.776 18.1543 108.474 18.0459 108.258 17.8291C108.041 17.6064 107.932 17.3311 107.932 17.0029ZM110.253 29H108.073V19.4902H110.253V29Z" fill="white"/>
<path d="M115.429 29H113.249V19.4902H115.297L115.367 20.6152C115.701 20.1992 116.103 19.8799 116.571 19.6572C117.04 19.4287 117.562 19.3145 118.136 19.3145C119.05 19.3145 119.782 19.584 120.333 20.123C120.89 20.6562 121.168 21.5732 121.168 22.874V29H118.98V22.8564C118.98 22.1943 118.836 21.7373 118.549 21.4854C118.268 21.2275 117.858 21.0986 117.318 21.0986C116.885 21.0986 116.507 21.2041 116.185 21.415C115.868 21.6201 115.616 21.8984 115.429 22.25V29Z" fill="white"/>
<path d="M128.243 29.1758C127.299 29.1758 126.485 28.9736 125.799 28.5693C125.114 28.1592 124.586 27.6084 124.217 26.917C123.848 26.2197 123.663 25.4404 123.663 24.5791V24.2188C123.663 23.2285 123.851 22.3672 124.226 21.6348C124.601 20.8965 125.114 20.3252 125.764 19.9209C126.42 19.5166 127.162 19.3145 127.988 19.3145C128.902 19.3145 129.661 19.5137 130.264 19.9121C130.868 20.3047 131.319 20.8525 131.618 21.5557C131.916 22.2529 132.066 23.0615 132.066 23.9814V24.9219H125.861C125.919 25.6426 126.168 26.2402 126.608 26.7148C127.047 27.1836 127.636 27.418 128.374 27.418C128.884 27.418 129.335 27.3184 129.728 27.1191C130.121 26.9199 130.463 26.6328 130.756 26.2578L131.899 27.4004C131.594 27.8516 131.143 28.2617 130.545 28.6309C129.948 28.9941 129.18 29.1758 128.243 29.1758ZM127.979 21.0635C127.399 21.0635 126.933 21.2686 126.581 21.6787C126.23 22.0889 126.004 22.6455 125.905 23.3486H129.912V23.1816C129.901 22.8125 129.828 22.4668 129.693 22.1445C129.564 21.8223 129.359 21.5615 129.078 21.3623C128.802 21.1631 128.436 21.0635 127.979 21.0635Z" fill="white"/>
<path d="M139.729 26.4072C139.729 26.208 139.676 26.0264 139.571 25.8623C139.466 25.6924 139.266 25.54 138.973 25.4053C138.68 25.2705 138.253 25.1416 137.69 25.0186C136.682 24.8076 135.862 24.4854 135.229 24.0518C134.602 23.6182 134.289 23 134.289 22.1973C134.289 21.6816 134.435 21.207 134.728 20.7734C135.027 20.334 135.452 19.9824 136.003 19.7188C136.553 19.4492 137.21 19.3145 137.971 19.3145C138.768 19.3145 139.454 19.4492 140.028 19.7188C140.602 19.9824 141.042 20.3428 141.346 20.7998C141.657 21.251 141.812 21.7637 141.812 22.3379H139.632C139.632 21.9629 139.492 21.6348 139.211 21.3535C138.935 21.0664 138.519 20.9229 137.963 20.9229C137.441 20.9229 137.051 21.043 136.794 21.2832C136.536 21.5176 136.407 21.79 136.407 22.1006C136.407 22.4111 136.539 22.6631 136.802 22.8564C137.072 23.0439 137.585 23.2168 138.341 23.375C139.43 23.6035 140.289 23.9316 140.916 24.3594C141.549 24.7812 141.865 25.4287 141.865 26.3018C141.865 26.8584 141.704 27.3535 141.382 27.7871C141.065 28.2207 140.617 28.5605 140.037 28.8066C139.457 29.0527 138.777 29.1758 137.998 29.1758C137.125 29.1758 136.389 29.0205 135.792 28.71C135.194 28.3994 134.74 28.001 134.429 27.5146C134.125 27.0283 133.972 26.5273 133.972 26.0117H136.073C136.102 26.5801 136.316 26.9814 136.715 27.2158C137.113 27.4502 137.549 27.5674 138.024 27.5674C138.581 27.5674 139.003 27.459 139.29 27.2422C139.583 27.0195 139.729 26.7412 139.729 26.4072Z" fill="white"/>
<path d="M149.73 26.4072C149.73 26.208 149.678 26.0264 149.572 25.8623C149.467 25.6924 149.268 25.54 148.975 25.4053C148.682 25.2705 148.254 25.1416 147.691 25.0186C146.684 24.8076 145.863 24.4854 145.23 24.0518C144.603 23.6182 144.29 23 144.29 22.1973C144.29 21.6816 144.436 21.207 144.729 20.7734C145.028 20.334 145.453 19.9824 146.004 19.7188C146.555 19.4492 147.211 19.3145 147.973 19.3145C148.769 19.3145 149.455 19.4492 150.029 19.7188C150.603 19.9824 151.043 20.3428 151.348 20.7998C151.658 21.251 151.813 21.7637 151.813 22.3379H149.634C149.634 21.9629 149.493 21.6348 149.212 21.3535C148.936 21.0664 148.52 20.9229 147.964 20.9229C147.442 20.9229 147.053 21.043 146.795 21.2832C146.537 21.5176 146.408 21.79 146.408 22.1006C146.408 22.4111 146.54 22.6631 146.804 22.8564C147.073 23.0439 147.586 23.2168 148.342 23.375C149.432 23.6035 150.29 23.9316 150.917 24.3594C151.55 24.7812 151.866 25.4287 151.866 26.3018C151.866 26.8584 151.705 27.3535 151.383 27.7871C151.066 28.2207 150.618 28.5605 150.038 28.8066C149.458 29.0527 148.778 29.1758 147.999 29.1758C147.126 29.1758 146.391 29.0205 145.793 28.71C145.195 28.3994 144.741 28.001 144.431 27.5146C144.126 27.0283 143.974 26.5273 143.974 26.0117H146.074C146.103 26.5801 146.317 26.9814 146.716 27.2158C147.114 27.4502 147.551 27.5674 148.025 27.5674C148.582 27.5674 149.004 27.459 149.291 27.2422C149.584 27.0195 149.73 26.7412 149.73 26.4072Z" fill="white"/>
<defs>
<clipPath id="clip0">
<rect width="45" height="45" fill="white" transform="translate(0 0.152344)"/>
</clipPath>
</defs>
</svg>
