<svg width="152" height="46" viewBox="0 0 152 46" fill="none" xmlns="http://www.w3.org/2000/svg">
<g clip-path="url(#clip0)">
<path d="M44.9981 38.0718V13.1041C45.0606 10.8623 43.2939 8.99428 41.0521 8.93179C40.9591 8.92916 40.8658 8.92979 40.7727 8.93357H31.8283V7.23257C31.8889 4.8998 30.0469 2.95954 27.7142 2.89893C27.6771 2.89799 27.64 2.89746 27.603 2.89746H17.3964C15.0628 2.89662 13.1704 4.78773 13.1697 7.12134C13.1697 7.15842 13.1701 7.19549 13.1712 7.23247V8.93357H4.2267C1.98583 8.84188 0.0949349 10.5839 0.00313656 12.8247C-0.00064461 12.9178 -0.00127481 13.0109 0.00135101 13.1041V38.0718C-0.0592527 40.4046 1.7827 42.3448 4.11547 42.4054C4.15255 42.4064 4.18963 42.4069 4.2266 42.4069H40.7727C43.1064 42.4077 44.9987 40.5166 44.9995 38.183C44.9996 38.1459 44.999 38.1089 44.9981 38.0718ZM17.2837 5.09548C17.3212 5.09348 17.3588 5.09243 17.3964 5.09253H27.603C28.7244 5.09085 29.6347 5.99854 29.6364 7.11987C29.6365 7.15747 29.6354 7.19507 29.6334 7.23257V8.93368H15.3661V7.23257C15.3055 6.11293 16.1641 5.15608 17.2837 5.09548ZM40.8856 40.209C40.8481 40.211 40.8105 40.212 40.7729 40.2119H4.2267C3.10538 40.2136 2.19506 39.3059 2.19338 38.1846C2.19327 38.147 2.19432 38.1094 2.19632 38.0719V30.8834C2.79816 31.2761 3.50891 31.4682 4.2267 31.4322H15.3661V34.6148C15.4677 35.2763 16.0153 35.7784 16.6831 35.8221H28.3164C28.9842 35.7784 29.5319 35.2763 29.6334 34.6148V31.4322H40.7729C41.4906 31.4683 42.2014 31.2762 42.8032 30.8834V38.0719C42.8637 39.1915 42.0052 40.1484 40.8856 40.209ZM17.5611 33.627V28.1396H27.4385V33.627H17.5611ZM40.8856 29.2341C40.8481 29.2361 40.8105 29.2372 40.7729 29.2371H29.6333V26.8775C29.6333 26.2739 28.9199 25.9446 28.3163 25.9446H16.6831C16.0795 25.9446 15.3661 26.2739 15.3661 26.8775V29.2371H4.2267C3.10538 29.2388 2.19506 28.3311 2.19338 27.2097C2.19327 27.1721 2.19432 27.1345 2.19632 27.097V13.1041C2.13151 12.0757 2.91264 11.1896 3.94101 11.1248C4.03617 11.1188 4.13175 11.12 4.2267 11.1286H40.7729C41.799 11.0357 42.7063 11.7922 42.7992 12.8184C42.8079 12.9134 42.8091 13.0089 42.8031 13.1041V27.0969C42.8637 28.2167 42.0052 29.1735 40.8856 29.2341Z" fill="#6C6DF5"/>
</g>
<path d="M84.1953 25.3086C84.1953 26.5098 83.8086 27.4268 83.0352 28.0596C82.2676 28.6865 81.2451 29 79.9678 29H75.4854V16.2031H79.6865C80.9932 16.2031 82.0156 16.4756 82.7539 17.0205C83.4922 17.5596 83.8613 18.4238 83.8613 19.6133C83.8613 20.2051 83.6885 20.7324 83.3428 21.1953C83.0029 21.6582 82.54 22.0156 81.9541 22.2676C82.6748 22.4551 83.2285 22.8301 83.6152 23.3926C84.002 23.9492 84.1953 24.5879 84.1953 25.3086ZM79.6865 17.583H77.1904V21.6611H79.7305C80.457 21.6611 81.043 21.4795 81.4883 21.1162C81.9336 20.7529 82.1562 20.2461 82.1562 19.5957C82.1562 18.8926 81.9512 18.3828 81.541 18.0664C81.1367 17.7441 80.5186 17.583 79.6865 17.583ZM82.4902 25.3262C82.4902 24.6113 82.2969 24.0459 81.9102 23.6299C81.5234 23.2139 80.9023 23.0059 80.0469 23.0059H77.1904V27.6289H79.9678C80.7705 27.6289 81.3916 27.4209 81.8311 27.0049C82.2705 26.5889 82.4902 26.0293 82.4902 25.3262Z" fill="#373B5A"/>
<path d="M92.9837 19.4902H94.6272V29H93.0628L93.0276 28.0684C92.7346 28.4141 92.3596 28.6865 91.9026 28.8857C91.4456 29.0791 90.8948 29.1758 90.2503 29.1758C89.3186 29.1758 88.5657 28.9004 87.9915 28.3496C87.4173 27.7988 87.1302 26.8906 87.1302 25.625V19.4902H88.7737V25.6426C88.7737 26.2168 88.8557 26.6621 89.0198 26.9785C89.1897 27.2891 89.4065 27.5059 89.6702 27.6289C89.9397 27.7461 90.221 27.8047 90.5139 27.8047C91.1761 27.8047 91.7034 27.6816 92.096 27.4355C92.4944 27.1836 92.7903 26.8496 92.9837 26.4336V19.4902Z" fill="#373B5A"/>
<path d="M103.354 26.4775C103.354 26.2432 103.301 26.0264 103.196 25.8271C103.096 25.6221 102.891 25.4375 102.581 25.2734C102.27 25.1035 101.801 24.9541 101.174 24.8252C100.12 24.6025 99.2847 24.2861 98.6695 23.876C98.0543 23.4658 97.7466 22.8711 97.7466 22.0918C97.7466 21.5879 97.8902 21.1279 98.1773 20.7119C98.4703 20.29 98.8804 19.9531 99.4078 19.7012C99.941 19.4434 100.562 19.3145 101.271 19.3145C102.033 19.3145 102.683 19.4492 103.222 19.7188C103.767 19.9824 104.183 20.3398 104.47 20.791C104.757 21.2363 104.901 21.7314 104.901 22.2764H103.257C103.257 21.8838 103.085 21.5117 102.739 21.1602C102.399 20.8086 101.91 20.6328 101.271 20.6328C100.597 20.6328 100.114 20.7822 99.8209 21.0811C99.5338 21.374 99.3902 21.6934 99.3902 22.0391C99.3902 22.2734 99.4488 22.4785 99.566 22.6543C99.6832 22.8242 99.897 22.9766 100.208 23.1113C100.524 23.2461 100.981 23.3809 101.579 23.5156C102.745 23.7852 103.606 24.1367 104.163 24.5703C104.719 24.998 104.998 25.5957 104.998 26.3633C104.998 27.1953 104.661 27.8721 103.987 28.3936C103.319 28.915 102.428 29.1758 101.315 29.1758C100.477 29.1758 99.7681 29.0264 99.188 28.7275C98.608 28.4287 98.1685 28.0449 97.8697 27.5762C97.5709 27.1016 97.4214 26.6006 97.4214 26.0732H99.065C99.0943 26.5186 99.2232 26.873 99.4517 27.1367C99.6861 27.3945 99.9703 27.5791 100.304 27.6904C100.644 27.8018 100.981 27.8574 101.315 27.8574C101.977 27.8574 102.481 27.7256 102.827 27.4619C103.178 27.1982 103.354 26.8701 103.354 26.4775Z" fill="#373B5A"/>
<path d="M107.853 16.959C107.853 16.7012 107.932 16.4814 108.091 16.2998C108.255 16.1182 108.495 16.0273 108.811 16.0273C109.128 16.0273 109.368 16.1182 109.532 16.2998C109.702 16.4814 109.787 16.7012 109.787 16.959C109.787 17.2109 109.702 17.4277 109.532 17.6094C109.368 17.7852 109.128 17.873 108.811 17.873C108.495 17.873 108.255 17.7852 108.091 17.6094C107.932 17.4277 107.853 17.2109 107.853 16.959ZM109.62 29H107.976V19.4902H109.62V29Z" fill="#373B5A"/>
<path d="M114.576 29H112.933V19.4902H114.488L114.541 20.6592C114.881 20.2373 115.291 19.9092 115.772 19.6748C116.252 19.4346 116.785 19.3145 117.371 19.3145C118.309 19.3145 119.05 19.5811 119.595 20.1143C120.146 20.6416 120.421 21.5264 120.421 22.7686V29H118.777V22.751C118.777 22.001 118.616 21.4678 118.294 21.1514C117.972 20.835 117.503 20.6768 116.888 20.6768C116.366 20.6768 115.906 20.8174 115.508 21.0986C115.115 21.3799 114.805 21.7461 114.576 22.1973V29Z" fill="#373B5A"/>
<path d="M127.557 29.1758C126.672 29.1758 125.902 28.9795 125.246 28.5869C124.595 28.1885 124.088 27.6436 123.725 26.9521C123.368 26.2607 123.189 25.4697 123.189 24.5791V24.2012C123.189 23.1699 123.385 22.291 123.778 21.5645C124.176 20.832 124.692 20.2754 125.325 19.8945C125.963 19.5078 126.637 19.3145 127.346 19.3145C128.26 19.3145 129.004 19.5195 129.579 19.9297C130.159 20.334 130.583 20.8877 130.853 21.5908C131.128 22.2881 131.266 23.0791 131.266 23.9639V24.6934H124.832C124.85 25.2793 124.97 25.8125 125.193 26.293C125.421 26.7676 125.744 27.1484 126.16 27.4355C126.576 27.7168 127.071 27.8574 127.645 27.8574C128.219 27.8574 128.705 27.7402 129.104 27.5059C129.502 27.2715 129.851 26.958 130.15 26.5654L131.143 27.3389C130.838 27.8076 130.399 28.2324 129.825 28.6133C129.256 28.9883 128.5 29.1758 127.557 29.1758ZM127.346 20.6328C126.702 20.6328 126.157 20.8701 125.711 21.3447C125.272 21.8193 124.996 22.4961 124.885 23.375H129.622V23.252C129.599 22.8301 129.514 22.4199 129.368 22.0215C129.221 21.6172 128.987 21.2861 128.664 21.0283C128.342 20.7646 127.903 20.6328 127.346 20.6328Z" fill="#373B5A"/>
<path d="M139.422 26.4775C139.422 26.2432 139.369 26.0264 139.263 25.8271C139.164 25.6221 138.959 25.4375 138.648 25.2734C138.338 25.1035 137.869 24.9541 137.242 24.8252C136.187 24.6025 135.352 24.2861 134.737 23.876C134.122 23.4658 133.814 22.8711 133.814 22.0918C133.814 21.5879 133.958 21.1279 134.245 20.7119C134.538 20.29 134.948 19.9531 135.475 19.7012C136.008 19.4434 136.63 19.3145 137.339 19.3145C138.1 19.3145 138.751 19.4492 139.29 19.7188C139.835 19.9824 140.251 20.3398 140.538 20.791C140.825 21.2363 140.968 21.7314 140.968 22.2764H139.325C139.325 21.8838 139.152 21.5117 138.806 21.1602C138.466 20.8086 137.977 20.6328 137.339 20.6328C136.665 20.6328 136.181 20.7822 135.888 21.0811C135.601 21.374 135.458 21.6934 135.458 22.0391C135.458 22.2734 135.516 22.4785 135.633 22.6543C135.751 22.8242 135.965 22.9766 136.275 23.1113C136.591 23.2461 137.049 23.3809 137.646 23.5156C138.812 23.7852 139.674 24.1367 140.23 24.5703C140.787 24.998 141.065 25.5957 141.065 26.3633C141.065 27.1953 140.728 27.8721 140.054 28.3936C139.386 28.915 138.496 29.1758 137.382 29.1758C136.545 29.1758 135.836 29.0264 135.256 28.7275C134.675 28.4287 134.236 28.0449 133.937 27.5762C133.638 27.1016 133.489 26.6006 133.489 26.0732H135.132C135.162 26.5186 135.291 26.873 135.519 27.1367C135.754 27.3945 136.038 27.5791 136.372 27.6904C136.712 27.8018 137.049 27.8574 137.382 27.8574C138.045 27.8574 138.549 27.7256 138.894 27.4619C139.246 27.1982 139.422 26.8701 139.422 26.4775Z" fill="#373B5A"/>
<path d="M149.44 26.4775C149.44 26.2432 149.388 26.0264 149.282 25.8271C149.183 25.6221 148.978 25.4375 148.667 25.2734C148.356 25.1035 147.888 24.9541 147.261 24.8252C146.206 24.6025 145.371 24.2861 144.756 23.876C144.141 23.4658 143.833 22.8711 143.833 22.0918C143.833 21.5879 143.977 21.1279 144.264 20.7119C144.557 20.29 144.967 19.9531 145.494 19.7012C146.027 19.4434 146.648 19.3145 147.357 19.3145C148.119 19.3145 148.769 19.4492 149.309 19.7188C149.853 19.9824 150.269 20.3398 150.557 20.791C150.844 21.2363 150.987 21.7314 150.987 22.2764H149.344C149.344 21.8838 149.171 21.5117 148.825 21.1602C148.485 20.8086 147.996 20.6328 147.357 20.6328C146.684 20.6328 146.2 20.7822 145.907 21.0811C145.62 21.374 145.477 21.6934 145.477 22.0391C145.477 22.2734 145.535 22.4785 145.652 22.6543C145.769 22.8242 145.983 22.9766 146.294 23.1113C146.61 23.2461 147.067 23.3809 147.665 23.5156C148.831 23.7852 149.692 24.1367 150.249 24.5703C150.806 24.998 151.084 25.5957 151.084 26.3633C151.084 27.1953 150.747 27.8721 150.073 28.3936C149.405 28.915 148.515 29.1758 147.401 29.1758C146.563 29.1758 145.854 29.0264 145.274 28.7275C144.694 28.4287 144.255 28.0449 143.956 27.5762C143.657 27.1016 143.508 26.6006 143.508 26.0732H145.151C145.181 26.5186 145.31 26.873 145.538 27.1367C145.772 27.3945 146.057 27.5791 146.391 27.6904C146.73 27.8018 147.067 27.8574 147.401 27.8574C148.063 27.8574 148.567 27.7256 148.913 27.4619C149.265 27.1982 149.44 26.8701 149.44 26.4775Z" fill="#373B5A"/>
<defs>
<clipPath id="clip0">
<rect width="45" height="45" fill="white" transform="translate(0 0.152344)"/>
</clipPath>
</defs>
</svg>
