<svg width="160" height="45" viewBox="0 0 160 45" fill="none" xmlns="http://www.w3.org/2000/svg">
<path d="M83.6768 29H75.2832V16.2031H83.6328V18.0312H77.5508V21.5117H82.7891V23.3047H77.5508V27.1807H83.6768V29Z" fill="white"/>
<path d="M85.5833 24.166C85.5833 23.2051 85.7327 22.3613 86.0315 21.6348C86.3362 20.9023 86.7669 20.334 87.3235 19.9297C87.8802 19.5195 88.5481 19.3145 89.3274 19.3145C89.843 19.3145 90.3001 19.4082 90.6985 19.5957C91.1028 19.7773 91.4544 20.0381 91.7532 20.3779V15.5H93.9329V29H91.9554L91.8499 27.9893C91.5511 28.3643 91.1907 28.6572 90.7688 28.8682C90.347 29.0732 89.8606 29.1758 89.3098 29.1758C88.5423 29.1758 87.8802 28.9678 87.3235 28.5518C86.7669 28.1299 86.3362 27.5557 86.0315 26.8291C85.7327 26.1025 85.5833 25.2764 85.5833 24.3506V24.166ZM87.763 24.3506C87.763 24.9131 87.8333 25.4258 87.9739 25.8887C88.1145 26.3457 88.3372 26.7119 88.6419 26.9873C88.9524 27.2568 89.3596 27.3916 89.8636 27.3916C90.3323 27.3916 90.719 27.2861 91.0237 27.0752C91.3343 26.8643 91.5774 26.5859 91.7532 26.2402V22.2236C91.5774 21.8779 91.3343 21.6055 91.0237 21.4062C90.719 21.2012 90.3382 21.0986 89.8811 21.0986C89.3772 21.0986 88.97 21.2363 88.6595 21.5117C88.3489 21.7871 88.1204 22.1562 87.9739 22.6191C87.8333 23.082 87.763 23.5977 87.763 24.166V24.3506Z" fill="white"/>
<path d="M102.554 19.4902H104.734V29H102.677L102.625 28.042C102.326 28.3994 101.957 28.6777 101.517 28.877C101.078 29.0762 100.556 29.1758 99.9527 29.1758C99.0152 29.1758 98.2564 28.9004 97.6763 28.3496C97.0963 27.7988 96.8062 26.8936 96.8062 25.6338V19.4902H98.9859V25.6514C98.9859 26.3135 99.1353 26.7705 99.4341 27.0225C99.733 27.2686 100.087 27.3916 100.498 27.3916C101.037 27.3916 101.47 27.2949 101.798 27.1016C102.132 26.9023 102.384 26.6357 102.554 26.3018V19.4902Z" fill="white"/>
<path d="M111.501 27.4268C112.011 27.4268 112.438 27.2773 112.784 26.9785C113.136 26.6797 113.326 26.2959 113.355 25.8271H115.412C115.394 26.4541 115.21 27.0225 114.858 27.5322C114.507 28.0361 114.041 28.4375 113.461 28.7363C112.881 29.0293 112.233 29.1758 111.518 29.1758C110.552 29.1758 109.746 28.9619 109.101 28.5342C108.463 28.1006 107.985 27.5234 107.669 26.8027C107.352 26.0762 107.194 25.2734 107.194 24.3945V24.0957C107.194 23.2168 107.352 22.417 107.669 21.6963C107.985 20.9697 108.463 20.3926 109.101 19.9648C109.746 19.5312 110.552 19.3145 111.518 19.3145C112.28 19.3145 112.951 19.4668 113.531 19.7715C114.111 20.0703 114.565 20.4922 114.893 21.0371C115.222 21.5762 115.394 22.2031 115.412 22.918H113.355C113.332 22.4082 113.156 21.9717 112.828 21.6084C112.506 21.2451 112.06 21.0635 111.492 21.0635C110.93 21.0635 110.493 21.2129 110.182 21.5117C109.878 21.8047 109.667 22.1826 109.55 22.6455C109.432 23.1084 109.374 23.5918 109.374 24.0957V24.3945C109.374 24.9102 109.432 25.3994 109.55 25.8623C109.667 26.3252 109.878 26.7031 110.182 26.9961C110.487 27.2832 110.927 27.4268 111.501 27.4268Z" fill="white"/>
<path d="M123.075 22.5752C123.075 22.083 122.938 21.6904 122.662 21.3975C122.393 21.1045 121.983 20.958 121.432 20.958C120.934 20.958 120.535 21.0811 120.236 21.3271C119.943 21.5732 119.797 21.8809 119.797 22.25H117.617C117.617 21.7402 117.778 21.2627 118.101 20.8174C118.423 20.3662 118.877 20.0029 119.463 19.7275C120.055 19.4521 120.752 19.3145 121.555 19.3145C122.627 19.3145 123.512 19.5869 124.209 20.1318C124.906 20.6768 125.255 21.4971 125.255 22.5928V26.7852C125.255 27.6523 125.378 28.3408 125.624 28.8506V29H123.392C123.292 28.7773 123.213 28.4756 123.154 28.0947C122.879 28.3936 122.53 28.6484 122.109 28.8594C121.693 29.0703 121.2 29.1758 120.632 29.1758C120.011 29.1758 119.457 29.0527 118.971 28.8066C118.484 28.5605 118.101 28.2236 117.819 27.7959C117.544 27.3682 117.406 26.8818 117.406 26.3369C117.406 25.3291 117.784 24.5557 118.54 24.0166C119.296 23.4775 120.368 23.208 121.757 23.208H123.075V22.5752ZM121.063 27.4443C121.555 27.4443 121.977 27.3301 122.328 27.1016C122.68 26.8672 122.929 26.6064 123.075 26.3193V24.5527H121.915C121.142 24.5527 120.559 24.6963 120.166 24.9834C119.779 25.2646 119.586 25.6484 119.586 26.1348C119.586 26.5098 119.712 26.8232 119.964 27.0752C120.222 27.3213 120.588 27.4443 121.063 27.4443Z" fill="white"/>
<path d="M132.584 21.0986H130.897V26.3193C130.897 26.7529 130.988 27.0371 131.169 27.1719C131.351 27.3008 131.594 27.3652 131.899 27.3652C132.045 27.3652 132.186 27.3564 132.321 27.3389C132.455 27.3213 132.564 27.3037 132.646 27.2861V28.9648C132.47 29.0234 132.265 29.0732 132.031 29.1143C131.796 29.1553 131.527 29.1758 131.222 29.1758C130.49 29.1758 129.889 28.9736 129.42 28.5693C128.952 28.1592 128.717 27.4619 128.717 26.4775V21.0986H127.188V19.4902H128.717V17.1611H130.897V19.4902H132.584V21.0986Z" fill="white"/>
<path d="M134.913 17.0029C134.913 16.6689 135.021 16.3936 135.238 16.1768C135.455 15.9541 135.757 15.8428 136.143 15.8428C136.53 15.8428 136.835 15.9541 137.057 16.1768C137.28 16.3936 137.391 16.6689 137.391 17.0029C137.391 17.3311 137.28 17.6064 137.057 17.8291C136.835 18.0459 136.53 18.1543 136.143 18.1543C135.757 18.1543 135.455 18.0459 135.238 17.8291C135.021 17.6064 134.913 17.3311 134.913 17.0029ZM137.233 29H135.053V19.4902H137.233V29Z" fill="white"/>
<path d="M139.852 24.1572C139.852 23.2314 140.027 22.4053 140.379 21.6787C140.73 20.9463 141.234 20.3691 141.891 19.9473C142.553 19.5254 143.347 19.3145 144.272 19.3145C145.21 19.3145 146.01 19.5254 146.672 19.9473C147.334 20.3691 147.838 20.9463 148.184 21.6787C148.535 22.4053 148.711 23.2314 148.711 24.1572V24.3418C148.711 25.2617 148.535 26.0879 148.184 26.8203C147.838 27.5469 147.334 28.1211 146.672 28.543C146.016 28.9648 145.222 29.1758 144.29 29.1758C143.358 29.1758 142.561 28.9648 141.899 28.543C141.237 28.1211 140.73 27.5469 140.379 26.8203C140.027 26.0879 139.852 25.2617 139.852 24.3418V24.1572ZM142.031 24.3418C142.031 24.9043 142.107 25.4199 142.26 25.8887C142.418 26.3516 142.664 26.7236 142.998 27.0049C143.332 27.2861 143.763 27.4268 144.29 27.4268C144.811 27.4268 145.236 27.2861 145.564 27.0049C145.898 26.7236 146.142 26.3516 146.294 25.8887C146.452 25.4199 146.531 24.9043 146.531 24.3418V24.1572C146.531 23.6064 146.452 23.0967 146.294 22.6279C146.142 22.1592 145.898 21.7812 145.564 21.4941C145.23 21.207 144.8 21.0635 144.272 21.0635C143.751 21.0635 143.323 21.207 142.989 21.4941C142.661 21.7812 142.418 22.1592 142.26 22.6279C142.107 23.0967 142.031 23.6064 142.031 24.1572V24.3418Z" fill="white"/>
<path d="M153.36 29H151.18V19.4902H153.228L153.298 20.6152C153.632 20.1992 154.033 19.8799 154.502 19.6572C154.971 19.4287 155.492 19.3145 156.067 19.3145C156.981 19.3145 157.713 19.584 158.264 20.123C158.821 20.6562 159.099 21.5732 159.099 22.874V29H156.91V22.8564C156.91 22.1943 156.767 21.7373 156.48 21.4854C156.198 21.2275 155.788 21.0986 155.249 21.0986C154.816 21.0986 154.438 21.2041 154.115 21.415C153.799 21.6201 153.547 21.8984 153.36 22.25V29Z" fill="white"/>
<path d="M36.2739 29.7226V25.038L34.2969 25.8072L34.2911 25.7941L34.244 25.7086C33.4865 24.5291 32.2613 23.7085 30.8817 23.4584L26.1247 22.5928V22.2173C27.9037 21.1842 29.2064 19.4219 29.6124 17.3384C30.9303 17.0658 31.9242 15.8965 31.9242 14.4988V7.33858C31.9242 5.31527 30.599 3.55076 28.6765 2.97661L28.314 2.61414C26.6278 0.927925 24.3863 0 22.0019 0C17.0803 0 13.0757 4.00385 13.0757 8.9262V14.4988C13.0757 15.8965 14.0696 17.0658 15.3876 17.3384C15.7943 19.4219 17.0963 21.185 18.8753 22.2173V22.5928L14.1189 23.4576C12.7408 23.7078 11.5164 24.5269 10.7581 25.7057L10.7146 25.8115L8.72609 25.038V29.7226C7.52704 29.7226 6.55127 30.6984 6.55127 31.8974V34.7972C6.55127 35.9962 7.52704 36.972 8.72609 36.972V39.6427L22.5 45L36.2739 39.6427V36.972C37.4729 36.972 38.4487 35.9962 38.4487 34.7972V31.8974C38.4487 30.6984 37.4729 29.7226 36.2739 29.7226ZM27.4832 24.3138L30.6222 24.8843C31.5465 25.0525 32.365 25.5861 32.9109 26.3458L25.8971 29.073L27.4832 24.3138ZM20.3868 22.882C21.0559 23.0865 21.7649 23.1981 22.5 23.1981C23.2351 23.1981 23.9441 23.0865 24.6132 22.882L22.5 24.4668L20.3868 22.882ZM21.3966 25.4512L19.917 26.9301L18.9572 24.0514L19.419 23.968L21.3966 25.4512ZM25.581 23.9687L26.0428 24.0521L25.0829 26.9308L23.6033 25.452L25.581 23.9687ZM29.7494 15.7472V13.2505C30.1807 13.502 30.4743 13.9645 30.4743 14.4988C30.4743 15.0331 30.1807 15.4956 29.7494 15.7472ZM15.2506 15.7472C14.8192 15.4956 14.5256 15.0331 14.5256 14.4988C14.5256 13.9645 14.8192 13.502 15.2506 13.2505V15.7472ZM15.2506 10.8741V11.702C14.9925 11.7694 14.7504 11.8709 14.5256 12.0021V8.9262C14.5256 4.80419 17.8792 1.44988 22.0019 1.44988C23.9984 1.44988 25.8768 2.22774 27.2889 3.63993L27.9283 4.28005L28.1233 4.3279C29.508 4.6737 30.4743 5.9119 30.4743 7.33858V12.0021C30.2496 11.8709 30.0075 11.7687 29.7494 11.702V10.8741H27.4506C25.486 10.8741 23.6084 9.93604 22.4304 8.3651L21.8541 7.59521L20.4136 9.03639C19.2276 10.2217 17.6516 10.8741 15.9755 10.8741H15.2506ZM16.7004 15.9487V12.2907C18.4903 12.1246 20.1512 11.3482 21.4387 10.0615L21.7207 9.77946C23.1742 11.3838 25.2678 12.324 27.4506 12.324H28.2995V15.9487C28.2995 19.1464 25.6977 21.7482 22.5 21.7482C19.3023 21.7482 16.7004 19.1464 16.7004 15.9487ZM14.3777 24.8843L17.5167 24.3138L19.1029 29.073L12.0876 26.3451C12.6335 25.5846 13.4534 25.0525 14.3777 24.8843ZM8.00115 34.7972V31.8974C8.00115 31.4972 8.32665 31.1725 8.72609 31.1725C9.92515 31.1725 10.9009 32.1482 10.9009 33.3473C10.9009 34.5463 9.92515 35.5221 8.72609 35.5221C8.32665 35.5221 8.00115 35.1973 8.00115 34.7972ZM21.775 43.1615L10.176 38.6517V36.6646C11.454 36.1035 12.3508 34.8298 12.3508 33.3473C12.3508 31.8648 11.454 30.5911 10.176 30.03V27.1577L21.775 31.6683V43.1615ZM19.6227 29.276L22.5 26.398L25.3773 29.2753L22.5 30.3946L19.6227 29.276ZM34.824 38.651L23.2249 43.1608V31.6683L34.824 27.1577V30.03C33.5459 30.5911 32.6492 31.8648 32.6492 33.3473C32.6492 34.8298 33.5459 36.1035 34.824 36.6646V38.651ZM36.9988 34.7972C36.9988 35.1973 36.6733 35.5221 36.2739 35.5221C35.0748 35.5221 34.099 34.5463 34.099 33.3473C34.099 32.1482 35.0748 31.1725 36.2739 31.1725C36.6733 31.1725 36.9988 31.4972 36.9988 31.8974V34.7972Z" fill="white"/>
</svg>
