<svg width="159" height="45" viewBox="0 0 159 45" fill="none" xmlns="http://www.w3.org/2000/svg">
<path d="M83.6152 29H75.4854V16.2031H83.5273V17.583H77.1904V21.7051H82.7188V23.0762H77.1904V27.6289H83.6152V29Z" fill="#373B5A"/>
<path d="M85.7854 24.166C85.7854 23.1992 85.9407 22.3525 86.2513 21.626C86.5677 20.8936 87.0071 20.3252 87.5696 19.9209C88.1321 19.5166 88.7913 19.3145 89.5471 19.3145C90.1214 19.3145 90.6253 19.4111 91.0589 19.6045C91.4925 19.7979 91.8645 20.0732 92.1751 20.4307V15.5H93.8186V29H92.3157L92.2366 27.9893C91.9261 28.3701 91.5452 28.6631 91.094 28.8682C90.6487 29.0732 90.1272 29.1758 89.5296 29.1758C88.7854 29.1758 88.1321 28.9678 87.5696 28.5518C87.0071 28.1299 86.5677 27.5557 86.2513 26.8291C85.9407 26.1025 85.7854 25.2764 85.7854 24.3506V24.166ZM87.429 24.3506C87.429 24.9834 87.5139 25.5635 87.6839 26.0908C87.8596 26.6123 88.1321 27.0283 88.5013 27.3389C88.8704 27.6494 89.3479 27.8047 89.9339 27.8047C90.5022 27.8047 90.9622 27.6758 91.3138 27.418C91.6712 27.1602 91.9583 26.832 92.1751 26.4336V22.0127C91.9641 21.626 91.68 21.3066 91.3225 21.0547C90.9651 20.8027 90.5081 20.6768 89.9514 20.6768C89.3596 20.6768 88.8763 20.835 88.5013 21.1514C88.1321 21.4678 87.8596 21.8926 87.6839 22.4258C87.5139 22.9531 87.429 23.5332 87.429 24.166V24.3506Z" fill="#373B5A"/>
<path d="M102.879 19.4902H104.523V29H102.959L102.923 28.0684C102.63 28.4141 102.255 28.6865 101.798 28.8857C101.341 29.0791 100.791 29.1758 100.146 29.1758C99.2144 29.1758 98.4615 28.9004 97.8873 28.3496C97.313 27.7988 97.0259 26.8906 97.0259 25.625V19.4902H98.6695V25.6426C98.6695 26.2168 98.7515 26.6621 98.9156 26.9785C99.0855 27.2891 99.3023 27.5059 99.566 27.6289C99.8355 27.7461 100.117 27.8047 100.41 27.8047C101.072 27.8047 101.599 27.6816 101.992 27.4355C102.39 27.1836 102.686 26.8496 102.879 26.4336V19.4902Z" fill="#373B5A"/>
<path d="M111.527 27.8574C112.107 27.8574 112.614 27.6816 113.048 27.3301C113.481 26.9785 113.722 26.5332 113.768 25.9941H115.324C115.295 26.5566 115.104 27.0811 114.753 27.5674C114.401 28.0479 113.944 28.4375 113.382 28.7363C112.819 29.0293 112.201 29.1758 111.527 29.1758C110.572 29.1758 109.781 28.959 109.154 28.5254C108.527 28.0859 108.058 27.5059 107.748 26.7852C107.443 26.0645 107.291 25.2793 107.291 24.4297V24.0605C107.291 23.2051 107.446 22.4199 107.757 21.7051C108.067 20.9844 108.536 20.4072 109.163 19.9736C109.79 19.5342 110.578 19.3145 111.527 19.3145C112.271 19.3145 112.922 19.4668 113.478 19.7715C114.041 20.0703 114.48 20.4805 114.797 21.002C115.119 21.5176 115.295 22.1035 115.324 22.7598H113.768C113.727 22.168 113.505 21.667 113.1 21.2568C112.702 20.8408 112.178 20.6328 111.527 20.6328C110.865 20.6328 110.344 20.8027 109.963 21.1426C109.588 21.4824 109.321 21.916 109.163 22.4434C109.011 22.9648 108.934 23.5039 108.934 24.0605V24.4297C108.934 24.9863 109.011 25.5283 109.163 26.0557C109.315 26.583 109.579 27.0166 109.954 27.3564C110.335 27.6904 110.859 27.8574 111.527 27.8574Z" fill="#373B5A"/>
<path d="M123.48 22.4785C123.48 21.9102 123.31 21.459 122.97 21.125C122.636 20.7852 122.141 20.6152 121.484 20.6152C120.875 20.6152 120.383 20.7676 120.008 21.0723C119.633 21.377 119.445 21.7285 119.445 22.127H117.802C117.802 21.6699 117.957 21.2275 118.268 20.7998C118.578 20.3662 119.015 20.0117 119.577 19.7363C120.146 19.4551 120.814 19.3145 121.581 19.3145C122.618 19.3145 123.468 19.5781 124.13 20.1055C124.792 20.6328 125.123 21.4297 125.123 22.4961V26.9258C125.123 27.2422 125.15 27.5791 125.202 27.9365C125.261 28.2939 125.346 28.6016 125.457 28.8594V29H123.743C123.691 28.8828 123.644 28.7363 123.603 28.5605C123.568 28.3848 123.538 28.2002 123.515 28.0068C123.21 28.3291 122.829 28.6045 122.372 28.833C121.921 29.0615 121.402 29.1758 120.817 29.1758C120.172 29.1758 119.607 29.0527 119.12 28.8066C118.64 28.5547 118.265 28.2148 117.995 27.7871C117.732 27.3594 117.6 26.8848 117.6 26.3633C117.6 25.3379 117.986 24.5615 118.76 24.0342C119.533 23.501 120.573 23.2344 121.88 23.2344H123.48V22.4785ZM121.054 27.7695C121.64 27.7695 122.147 27.623 122.574 27.3301C123.002 27.0312 123.304 26.7002 123.48 26.3369V24.377H122.144C121.218 24.377 120.503 24.5234 119.999 24.8164C119.495 25.1094 119.243 25.5488 119.243 26.1348C119.243 26.5918 119.396 26.9785 119.7 27.2949C120.011 27.6113 120.462 27.7695 121.054 27.7695Z" fill="#373B5A"/>
<path d="M132.4 20.7295H130.624V26.6445C130.624 27.1367 130.73 27.4502 130.941 27.585C131.158 27.7197 131.401 27.7871 131.67 27.7871C131.805 27.7871 131.946 27.7754 132.092 27.752C132.245 27.7285 132.356 27.708 132.426 27.6904L132.435 29C132.306 29.041 132.136 29.0791 131.925 29.1143C131.72 29.1553 131.471 29.1758 131.178 29.1758C130.78 29.1758 130.413 29.0967 130.079 28.9385C129.746 28.7803 129.479 28.5166 129.28 28.1475C129.08 27.7725 128.981 27.2686 128.981 26.6357V20.7295H127.249V19.4902H128.981V17.1787H130.624V19.4902H132.4V20.7295Z" fill="#373B5A"/>
<path d="M135.027 16.959C135.027 16.7012 135.106 16.4814 135.264 16.2998C135.428 16.1182 135.669 16.0273 135.985 16.0273C136.301 16.0273 136.542 16.1182 136.706 16.2998C136.876 16.4814 136.961 16.7012 136.961 16.959C136.961 17.2109 136.876 17.4277 136.706 17.6094C136.542 17.7852 136.301 17.873 135.985 17.873C135.669 17.873 135.428 17.7852 135.264 17.6094C135.106 17.4277 135.027 17.2109 135.027 16.959ZM136.794 29H135.15V19.4902H136.794V29Z" fill="#373B5A"/>
<path d="M139.685 24.1484C139.685 23.2285 139.86 22.4053 140.212 21.6787C140.563 20.9521 141.061 20.3779 141.706 19.9561C142.351 19.5283 143.115 19.3145 144 19.3145C144.896 19.3145 145.67 19.5283 146.32 19.9561C146.971 20.3779 147.469 20.9521 147.814 21.6787C148.166 22.4053 148.342 23.2285 148.342 24.1484V24.3506C148.342 25.2646 148.166 26.0879 147.814 26.8203C147.469 27.5469 146.971 28.1211 146.32 28.543C145.676 28.9648 144.908 29.1758 144.018 29.1758C143.127 29.1758 142.356 28.9648 141.706 28.543C141.061 28.1211 140.563 27.5469 140.212 26.8203C139.86 26.0879 139.685 25.2646 139.685 24.3506V24.1484ZM141.328 24.3506C141.328 24.9775 141.428 25.5576 141.627 26.0908C141.826 26.624 142.122 27.0518 142.515 27.374C142.913 27.6963 143.414 27.8574 144.018 27.8574C144.615 27.8574 145.11 27.6963 145.503 27.374C145.901 27.0518 146.2 26.624 146.399 26.0908C146.599 25.5576 146.698 24.9775 146.698 24.3506V24.1484C146.698 23.5215 146.599 22.9414 146.399 22.4082C146.2 21.875 145.901 21.4473 145.503 21.125C145.104 20.7969 144.603 20.6328 144 20.6328C143.408 20.6328 142.913 20.7969 142.515 21.125C142.116 21.4473 141.817 21.875 141.618 22.4082C141.425 22.9414 141.328 23.5215 141.328 24.1484V24.3506Z" fill="#373B5A"/>
<path d="M152.753 29H151.11V19.4902H152.665L152.718 20.6592C153.058 20.2373 153.468 19.9092 153.948 19.6748C154.429 19.4346 154.962 19.3145 155.548 19.3145C156.486 19.3145 157.227 19.5811 157.772 20.1143C158.323 20.6416 158.598 21.5264 158.598 22.7686V29H156.954V22.751C156.954 22.001 156.793 21.4678 156.471 21.1514C156.149 20.835 155.68 20.6768 155.065 20.6768C154.543 20.6768 154.083 20.8174 153.685 21.0986C153.292 21.3799 152.982 21.7461 152.753 22.1973V29Z" fill="#373B5A"/>
<path d="M36.2739 29.7226V25.038L34.2969 25.8072L34.2911 25.7941L34.244 25.7086C33.4865 24.5291 32.2613 23.7085 30.8817 23.4584L26.1247 22.5928V22.2173C27.9037 21.1842 29.2064 19.4219 29.6124 17.3384C30.9303 17.0658 31.9242 15.8965 31.9242 14.4988V7.33858C31.9242 5.31527 30.599 3.55076 28.6765 2.97661L28.314 2.61414C26.6278 0.927925 24.3863 0 22.0019 0C17.0803 0 13.0757 4.00385 13.0757 8.9262V14.4988C13.0757 15.8965 14.0696 17.0658 15.3876 17.3384C15.7943 19.4219 17.0963 21.185 18.8753 22.2173V22.5928L14.1189 23.4576C12.7408 23.7078 11.5164 24.5269 10.7581 25.7057L10.7146 25.8115L8.72609 25.038V29.7226C7.52704 29.7226 6.55127 30.6984 6.55127 31.8974V34.7972C6.55127 35.9962 7.52704 36.972 8.72609 36.972V39.6427L22.5 45L36.2739 39.6427V36.972C37.4729 36.972 38.4487 35.9962 38.4487 34.7972V31.8974C38.4487 30.6984 37.4729 29.7226 36.2739 29.7226ZM27.4832 24.3138L30.6222 24.8843C31.5465 25.0525 32.365 25.5861 32.9109 26.3458L25.8971 29.073L27.4832 24.3138ZM20.3868 22.882C21.0559 23.0865 21.7649 23.1981 22.5 23.1981C23.2351 23.1981 23.9441 23.0865 24.6132 22.882L22.5 24.4668L20.3868 22.882ZM21.3966 25.4512L19.917 26.9301L18.9572 24.0514L19.419 23.968L21.3966 25.4512ZM25.581 23.9687L26.0428 24.0521L25.0829 26.9308L23.6033 25.452L25.581 23.9687ZM29.7494 15.7472V13.2505C30.1807 13.502 30.4743 13.9645 30.4743 14.4988C30.4743 15.0331 30.1807 15.4956 29.7494 15.7472ZM15.2506 15.7472C14.8192 15.4956 14.5256 15.0331 14.5256 14.4988C14.5256 13.9645 14.8192 13.502 15.2506 13.2505V15.7472ZM15.2506 10.8741V11.702C14.9925 11.7694 14.7504 11.8709 14.5256 12.0021V8.9262C14.5256 4.80419 17.8792 1.44988 22.0019 1.44988C23.9984 1.44988 25.8768 2.22774 27.2889 3.63993L27.9283 4.28005L28.1233 4.3279C29.508 4.6737 30.4743 5.9119 30.4743 7.33858V12.0021C30.2496 11.8709 30.0075 11.7687 29.7494 11.702V10.8741H27.4506C25.486 10.8741 23.6084 9.93604 22.4304 8.3651L21.8541 7.59521L20.4136 9.03639C19.2276 10.2217 17.6516 10.8741 15.9755 10.8741H15.2506ZM16.7004 15.9487V12.2907C18.4903 12.1246 20.1512 11.3482 21.4387 10.0615L21.7207 9.77946C23.1742 11.3838 25.2678 12.324 27.4506 12.324H28.2995V15.9487C28.2995 19.1464 25.6977 21.7482 22.5 21.7482C19.3023 21.7482 16.7004 19.1464 16.7004 15.9487ZM14.3777 24.8843L17.5167 24.3138L19.1029 29.073L12.0876 26.3451C12.6335 25.5846 13.4534 25.0525 14.3777 24.8843ZM8.00115 34.7972V31.8974C8.00115 31.4972 8.32665 31.1725 8.72609 31.1725C9.92515 31.1725 10.9009 32.1482 10.9009 33.3473C10.9009 34.5463 9.92515 35.5221 8.72609 35.5221C8.32665 35.5221 8.00115 35.1973 8.00115 34.7972ZM21.775 43.1615L10.176 38.6517V36.6646C11.454 36.1035 12.3508 34.8298 12.3508 33.3473C12.3508 31.8648 11.454 30.5911 10.176 30.03V27.1577L21.775 31.6683V43.1615ZM19.6227 29.276L22.5 26.398L25.3773 29.2753L22.5 30.3946L19.6227 29.276ZM34.824 38.651L23.2249 43.1608V31.6683L34.824 27.1577V30.03C33.5459 30.5911 32.6492 31.8648 32.6492 33.3473C32.6492 34.8298 33.5459 36.1035 34.824 36.6646V38.651ZM36.9988 34.7972C36.9988 35.1973 36.6733 35.5221 36.2739 35.5221C35.0748 35.5221 34.099 34.5463 34.099 33.3473C34.099 32.1482 35.0748 31.1725 36.2739 31.1725C36.6733 31.1725 36.9988 31.4972 36.9988 31.8974V34.7972Z" fill="#6C6DF5"/>
</svg>
