<svg width="177" height="45" viewBox="0 0 177 45" fill="none" xmlns="http://www.w3.org/2000/svg">
<g clip-path="url(#clip0)">
<path d="M43.8751 19.485C43.8737 19.4839 43.8727 19.4826 43.8716 19.4815L25.5152 1.12576C24.7327 0.34298 23.6925 -0.0878906 22.5859 -0.0878906C21.4794 -0.0878906 20.4391 0.34298 19.6563 1.12576L1.30948 19.4723C1.3033 19.4785 1.29678 19.485 1.29094 19.4912C-0.315812 21.1072 -0.313065 23.7291 1.29884 25.341C2.03527 26.0778 3.00756 26.5042 4.04749 26.5492C4.09006 26.5533 4.13263 26.5554 4.17555 26.5554H4.90682V40.0638C4.90682 42.7372 7.08212 44.9122 9.75558 44.9122H16.9372C17.6654 44.9122 18.2556 44.3217 18.2556 43.5938V33.003C18.2556 31.7832 19.2481 30.791 20.468 30.791H24.7039C25.9237 30.791 26.9159 31.7832 26.9159 33.003V43.5938C26.9159 44.3217 27.5061 44.9122 28.2343 44.9122H35.4159C38.0897 44.9122 40.2647 42.7372 40.2647 40.0638V26.5554H40.9431C42.0493 26.5554 43.0895 26.1245 43.8727 25.3414C45.4863 23.7271 45.487 21.1003 43.8751 19.485V19.485ZM42.0081 23.4771C41.7235 23.7618 41.3451 23.9187 40.9431 23.9187H38.9463C38.2181 23.9187 37.628 24.5088 37.628 25.237V40.0638C37.628 41.2833 36.6357 42.2755 35.4159 42.2755H29.5526V33.003C29.5526 30.3295 27.3777 28.1542 24.7039 28.1542H20.468C17.7942 28.1542 15.6189 30.3295 15.6189 33.003V42.2755H9.75558C8.5361 42.2755 7.54355 41.2833 7.54355 40.0638V25.237C7.54355 24.5088 6.95338 23.9187 6.22519 23.9187H4.26275C4.24215 23.9173 4.22189 23.9163 4.20095 23.9159C3.80819 23.909 3.4398 23.7532 3.16377 23.4768C2.57669 22.8897 2.57669 21.9342 3.16377 21.3468C3.16412 21.3468 3.16412 21.3465 3.16446 21.3461L3.16549 21.3451L21.5213 2.99C21.8055 2.70539 22.1835 2.54883 22.5859 2.54883C22.988 2.54883 23.366 2.70539 23.6506 2.99L42.0022 21.3413C42.005 21.3441 42.0081 21.3468 42.0108 21.3496C42.5948 21.9377 42.5938 22.8911 42.0081 23.4771V23.4771Z" fill="white"/>
</g>
<path d="M77.5508 29H75.2832V16.2031H77.5508V21.5117H83.2109V16.2031H85.4697V29H83.2109V23.3398H77.5508V29Z" fill="white"/>
<path d="M88.1761 24.1572C88.1761 23.2314 88.3518 22.4053 88.7034 21.6787C89.055 20.9463 89.5589 20.3691 90.2151 19.9473C90.8772 19.5254 91.6712 19.3145 92.597 19.3145C93.5345 19.3145 94.3343 19.5254 94.9964 19.9473C95.6585 20.3691 96.1624 20.9463 96.5081 21.6787C96.8596 22.4053 97.0354 23.2314 97.0354 24.1572V24.3418C97.0354 25.2617 96.8596 26.0879 96.5081 26.8203C96.1624 27.5469 95.6585 28.1211 94.9964 28.543C94.3401 28.9648 93.5462 29.1758 92.6145 29.1758C91.6829 29.1758 90.886 28.9648 90.2239 28.543C89.5618 28.1211 89.055 27.5469 88.7034 26.8203C88.3518 26.0879 88.1761 25.2617 88.1761 24.3418V24.1572ZM90.3557 24.3418C90.3557 24.9043 90.4319 25.4199 90.5843 25.8887C90.7425 26.3516 90.9886 26.7236 91.3225 27.0049C91.6565 27.2861 92.0872 27.4268 92.6145 27.4268C93.136 27.4268 93.5608 27.2861 93.8889 27.0049C94.2229 26.7236 94.4661 26.3516 94.6184 25.8887C94.7766 25.4199 94.8557 24.9043 94.8557 24.3418V24.1572C94.8557 23.6064 94.7766 23.0967 94.6184 22.6279C94.4661 22.1592 94.2229 21.7812 93.8889 21.4941C93.555 21.207 93.1243 21.0635 92.597 21.0635C92.0755 21.0635 91.6477 21.207 91.3138 21.4941C90.9856 21.7812 90.7425 22.1592 90.5843 22.6279C90.4319 23.0967 90.3557 23.6064 90.3557 24.1572V24.3418Z" fill="white"/>
<path d="M105.226 19.4902H107.406V29H105.349L105.296 28.042C104.998 28.3994 104.628 28.6777 104.189 28.877C103.75 29.0762 103.228 29.1758 102.625 29.1758C101.687 29.1758 100.928 28.9004 100.348 28.3496C99.7681 27.7988 99.4781 26.8936 99.4781 25.6338V19.4902H101.658V25.6514C101.658 26.3135 101.807 26.7705 102.106 27.0225C102.405 27.2686 102.759 27.3916 103.169 27.3916C103.709 27.3916 104.142 27.2949 104.47 27.1016C104.804 26.9023 105.056 26.6357 105.226 26.3018V19.4902Z" fill="white"/>
<path d="M115.579 26.4072C115.579 26.208 115.526 26.0264 115.421 25.8623C115.315 25.6924 115.116 25.54 114.823 25.4053C114.53 25.2705 114.102 25.1416 113.54 25.0186C112.532 24.8076 111.712 24.4854 111.079 24.0518C110.452 23.6182 110.139 23 110.139 22.1973C110.139 21.6816 110.285 21.207 110.578 20.7734C110.877 20.334 111.302 19.9824 111.852 19.7188C112.403 19.4492 113.059 19.3145 113.821 19.3145C114.618 19.3145 115.304 19.4492 115.878 19.7188C116.452 19.9824 116.891 20.3428 117.196 20.7998C117.507 21.251 117.662 21.7637 117.662 22.3379H115.482C115.482 21.9629 115.342 21.6348 115.06 21.3535C114.785 21.0664 114.369 20.9229 113.812 20.9229C113.291 20.9229 112.901 21.043 112.643 21.2832C112.386 21.5176 112.257 21.79 112.257 22.1006C112.257 22.4111 112.389 22.6631 112.652 22.8564C112.922 23.0439 113.434 23.2168 114.19 23.375C115.28 23.6035 116.139 23.9316 116.765 24.3594C117.398 24.7812 117.715 25.4287 117.715 26.3018C117.715 26.8584 117.554 27.3535 117.231 27.7871C116.915 28.2207 116.467 28.5605 115.887 28.8066C115.306 29.0527 114.627 29.1758 113.847 29.1758C112.974 29.1758 112.239 29.0205 111.641 28.71C111.044 28.3994 110.59 28.001 110.279 27.5146C109.974 27.0283 109.822 26.5273 109.822 26.0117H111.923C111.952 26.5801 112.166 26.9814 112.564 27.2158C112.963 27.4502 113.399 27.5674 113.874 27.5674C114.431 27.5674 114.852 27.459 115.139 27.2422C115.432 27.0195 115.579 26.7412 115.579 26.4072Z" fill="white"/>
<path d="M124.482 29.1758C123.538 29.1758 122.724 28.9736 122.038 28.5693C121.353 28.1592 120.825 27.6084 120.456 26.917C120.087 26.2197 119.902 25.4404 119.902 24.5791V24.2188C119.902 23.2285 120.09 22.3672 120.465 21.6348C120.84 20.8965 121.353 20.3252 122.003 19.9209C122.659 19.5166 123.401 19.3145 124.227 19.3145C125.141 19.3145 125.9 19.5137 126.503 19.9121C127.107 20.3047 127.558 20.8525 127.857 21.5557C128.155 22.2529 128.305 23.0615 128.305 23.9814V24.9219H122.1C122.158 25.6426 122.407 26.2402 122.847 26.7148C123.286 27.1836 123.875 27.418 124.613 27.418C125.123 27.418 125.574 27.3184 125.967 27.1191C126.359 26.9199 126.702 26.6328 126.995 26.2578L128.138 27.4004C127.833 27.8516 127.382 28.2617 126.784 28.6309C126.187 28.9941 125.419 29.1758 124.482 29.1758ZM124.218 21.0635C123.638 21.0635 123.172 21.2686 122.82 21.6787C122.469 22.0889 122.243 22.6455 122.144 23.3486H126.151V23.1816C126.14 22.8125 126.067 22.4668 125.932 22.1445C125.803 21.8223 125.598 21.5615 125.317 21.3623C125.041 21.1631 124.675 21.0635 124.218 21.0635Z" fill="white"/>
<path d="M132.804 29H130.624V15.5H132.804V20.5537C133.126 20.1611 133.51 19.8564 133.955 19.6396C134.407 19.4229 134.902 19.3145 135.441 19.3145C136.378 19.3145 137.131 19.5898 137.7 20.1406C138.268 20.6855 138.552 21.6084 138.552 22.9092V29H136.364V22.8916C136.364 22.2236 136.22 21.7578 135.933 21.4941C135.646 21.2305 135.233 21.0986 134.694 21.0986C134.248 21.0986 133.868 21.2012 133.551 21.4062C133.241 21.6055 132.992 21.875 132.804 22.2148V29Z" fill="white"/>
<path d="M140.995 24.1572C140.995 23.2314 141.171 22.4053 141.522 21.6787C141.874 20.9463 142.378 20.3691 143.034 19.9473C143.696 19.5254 144.49 19.3145 145.416 19.3145C146.353 19.3145 147.153 19.5254 147.815 19.9473C148.477 20.3691 148.981 20.9463 149.327 21.6787C149.678 22.4053 149.854 23.2314 149.854 24.1572V24.3418C149.854 25.2617 149.678 26.0879 149.327 26.8203C148.981 27.5469 148.477 28.1211 147.815 28.543C147.159 28.9648 146.365 29.1758 145.433 29.1758C144.502 29.1758 143.705 28.9648 143.043 28.543C142.381 28.1211 141.874 27.5469 141.522 26.8203C141.171 26.0879 140.995 25.2617 140.995 24.3418V24.1572ZM143.174 24.3418C143.174 24.9043 143.251 25.4199 143.403 25.8887C143.561 26.3516 143.807 26.7236 144.141 27.0049C144.475 27.2861 144.906 27.4268 145.433 27.4268C145.955 27.4268 146.38 27.2861 146.708 27.0049C147.042 26.7236 147.285 26.3516 147.437 25.8887C147.595 25.4199 147.674 24.9043 147.674 24.3418V24.1572C147.674 23.6064 147.595 23.0967 147.437 22.6279C147.285 22.1592 147.042 21.7812 146.708 21.4941C146.374 21.207 145.943 21.0635 145.416 21.0635C144.894 21.0635 144.466 21.207 144.132 21.4941C143.804 21.7812 143.561 22.1592 143.403 22.6279C143.251 23.0967 143.174 23.6064 143.174 24.1572V24.3418Z" fill="white"/>
<path d="M154.67 29H152.49V15.5H154.67V29Z" fill="white"/>
<path d="M157.297 24.166C157.297 23.2051 157.447 22.3613 157.745 21.6348C158.05 20.9023 158.481 20.334 159.037 19.9297C159.594 19.5195 160.262 19.3145 161.041 19.3145C161.557 19.3145 162.014 19.4082 162.412 19.5957C162.817 19.7773 163.168 20.0381 163.467 20.3779V15.5H165.647V29H163.669L163.564 27.9893C163.265 28.3643 162.905 28.6572 162.483 28.8682C162.061 29.0732 161.574 29.1758 161.024 29.1758C160.256 29.1758 159.594 28.9678 159.037 28.5518C158.481 28.1299 158.05 27.5557 157.745 26.8291C157.447 26.1025 157.297 25.2764 157.297 24.3506V24.166ZM159.477 24.3506C159.477 24.9131 159.547 25.4258 159.688 25.8887C159.828 26.3457 160.051 26.7119 160.356 26.9873C160.666 27.2568 161.073 27.3916 161.577 27.3916C162.046 27.3916 162.433 27.2861 162.738 27.0752C163.048 26.8643 163.291 26.5859 163.467 26.2402V22.2236C163.291 21.8779 163.048 21.6055 162.738 21.4062C162.433 21.2012 162.052 21.0986 161.595 21.0986C161.091 21.0986 160.684 21.2363 160.373 21.5117C160.063 21.7871 159.834 22.1562 159.688 22.6191C159.547 23.082 159.477 23.5977 159.477 24.166V24.3506Z" fill="white"/>
<path d="M173.881 26.4072C173.881 26.208 173.829 26.0264 173.723 25.8623C173.618 25.6924 173.418 25.54 173.126 25.4053C172.833 25.2705 172.405 25.1416 171.842 25.0186C170.834 24.8076 170.014 24.4854 169.381 24.0518C168.754 23.6182 168.441 23 168.441 22.1973C168.441 21.6816 168.587 21.207 168.88 20.7734C169.179 20.334 169.604 19.9824 170.155 19.7188C170.706 19.4492 171.362 19.3145 172.124 19.3145C172.92 19.3145 173.606 19.4492 174.18 19.7188C174.754 19.9824 175.194 20.3428 175.499 20.7998C175.809 21.251 175.964 21.7637 175.964 22.3379H173.785C173.785 21.9629 173.644 21.6348 173.363 21.3535C173.087 21.0664 172.671 20.9229 172.115 20.9229C171.593 20.9229 171.204 21.043 170.946 21.2832C170.688 21.5176 170.559 21.79 170.559 22.1006C170.559 22.4111 170.691 22.6631 170.955 22.8564C171.224 23.0439 171.737 23.2168 172.493 23.375C173.583 23.6035 174.441 23.9316 175.068 24.3594C175.701 24.7812 176.017 25.4287 176.017 26.3018C176.017 26.8584 175.856 27.3535 175.534 27.7871C175.217 28.2207 174.769 28.5605 174.189 28.8066C173.609 29.0527 172.929 29.1758 172.15 29.1758C171.277 29.1758 170.542 29.0205 169.944 28.71C169.346 28.3994 168.892 28.001 168.582 27.5146C168.277 27.0283 168.125 26.5273 168.125 26.0117H170.225C170.254 26.5801 170.468 26.9814 170.867 27.2158C171.265 27.4502 171.702 27.5674 172.176 27.5674C172.733 27.5674 173.155 27.459 173.442 27.2422C173.735 27.0195 173.881 26.7412 173.881 26.4072Z" fill="white"/>
<defs>
<clipPath id="clip0">
<rect width="45" height="45" fill="white"/>
</clipPath>
</defs>
</svg>
