<svg width="176" height="45" viewBox="0 0 176 45" fill="none" xmlns="http://www.w3.org/2000/svg">
<g clip-path="url(#clip0)">
<path d="M43.8748 19.485C43.8734 19.4839 43.8724 19.4826 43.8714 19.4815L25.5149 1.12576C24.7325 0.34298 23.6922 -0.0878906 22.5857 -0.0878906C21.4791 -0.0878906 20.4389 0.34298 19.6561 1.12576L1.30924 19.4723C1.30306 19.4785 1.29653 19.485 1.2907 19.4912C-0.316056 21.1072 -0.313309 23.7291 1.29859 25.341C2.03502 26.0778 3.00732 26.5042 4.04724 26.5492C4.08981 26.5533 4.13239 26.5554 4.1753 26.5554H4.90658V40.0638C4.90658 42.7372 7.08188 44.9122 9.75534 44.9122H16.937C17.6652 44.9122 18.2553 44.3217 18.2553 43.5938V33.003C18.2553 31.7832 19.2479 30.791 20.4677 30.791H24.7036C25.9235 30.791 26.9157 31.7832 26.9157 33.003V43.5938C26.9157 44.3217 27.5058 44.9122 28.234 44.9122H35.4157C38.0895 44.9122 40.2644 42.7372 40.2644 40.0638V26.5554H40.9428C42.049 26.5554 43.0893 26.1245 43.8724 25.3414C45.486 23.7271 45.4867 21.1003 43.8748 19.485V19.485ZM42.0078 23.4771C41.7232 23.7618 41.3449 23.9187 40.9428 23.9187H38.9461C38.2179 23.9187 37.6277 24.5088 37.6277 25.237V40.0638C37.6277 41.2833 36.6355 42.2755 35.4157 42.2755H29.5524V33.003C29.5524 30.3295 27.3774 28.1542 24.7036 28.1542H20.4677C17.7939 28.1542 15.6186 30.3295 15.6186 33.003V42.2755H9.75534C8.53585 42.2755 7.5433 41.2833 7.5433 40.0638V25.237C7.5433 24.5088 6.95313 23.9187 6.22494 23.9187H4.26251C4.24191 23.9173 4.22165 23.9163 4.20071 23.9159C3.80795 23.909 3.43956 23.7532 3.16353 23.4768C2.57644 22.8897 2.57644 21.9342 3.16353 21.3468C3.16387 21.3468 3.16387 21.3465 3.16421 21.3461L3.16524 21.3451L21.521 2.99C21.8053 2.70539 22.1833 2.54883 22.5857 2.54883C22.9877 2.54883 23.3657 2.70539 23.6503 2.99L42.002 21.3413C42.0047 21.3441 42.0078 21.3468 42.0106 21.3496C42.5946 21.9377 42.5935 22.8911 42.0078 23.4771V23.4771Z" fill="#6C6DF5"/>
</g>
<path d="M77.1904 29H75.4854V16.2031H77.1904V21.7051H83.624V16.2031H85.3291V29H83.624V23.0762H77.1904V29Z" fill="#373B5A"/>
<path d="M88.3782 24.1484C88.3782 23.2285 88.554 22.4053 88.9055 21.6787C89.2571 20.9521 89.7552 20.3779 90.3997 19.9561C91.0442 19.5283 91.8089 19.3145 92.6936 19.3145C93.5901 19.3145 94.3636 19.5283 95.0139 19.9561C95.6643 20.3779 96.1624 20.9521 96.5081 21.6787C96.8596 22.4053 97.0354 23.2285 97.0354 24.1484V24.3506C97.0354 25.2646 96.8596 26.0879 96.5081 26.8203C96.1624 27.5469 95.6643 28.1211 95.0139 28.543C94.3694 28.9648 93.6018 29.1758 92.7112 29.1758C91.8206 29.1758 91.0501 28.9648 90.3997 28.543C89.7552 28.1211 89.2571 27.5469 88.9055 26.8203C88.554 26.0879 88.3782 25.2646 88.3782 24.3506V24.1484ZM90.0218 24.3506C90.0218 24.9775 90.1214 25.5576 90.3206 26.0908C90.5198 26.624 90.8157 27.0518 91.2083 27.374C91.6067 27.6963 92.1077 27.8574 92.7112 27.8574C93.3089 27.8574 93.804 27.6963 94.1966 27.374C94.595 27.0518 94.8938 26.624 95.093 26.0908C95.2923 25.5576 95.3919 24.9775 95.3919 24.3506V24.1484C95.3919 23.5215 95.2923 22.9414 95.093 22.4082C94.8938 21.875 94.595 21.4473 94.1966 21.125C93.7981 20.7969 93.2971 20.6328 92.6936 20.6328C92.1018 20.6328 91.6067 20.7969 91.2083 21.125C90.8098 21.4473 90.511 21.875 90.3118 22.4082C90.1184 22.9414 90.0218 23.5215 90.0218 24.1484V24.3506Z" fill="#373B5A"/>
<path d="M105.622 19.4902H107.265V29H105.701L105.666 28.0684C105.373 28.4141 104.998 28.6865 104.541 28.8857C104.084 29.0791 103.533 29.1758 102.888 29.1758C101.957 29.1758 101.204 28.9004 100.629 28.3496C100.055 27.7988 99.7681 26.8906 99.7681 25.625V19.4902H101.412V25.6426C101.412 26.2168 101.494 26.6621 101.658 26.9785C101.828 27.2891 102.044 27.5059 102.308 27.6289C102.578 27.7461 102.859 27.8047 103.152 27.8047C103.814 27.8047 104.341 27.6816 104.734 27.4355C105.132 27.1836 105.428 26.8496 105.622 26.4336V19.4902Z" fill="#373B5A"/>
<path d="M115.992 26.4775C115.992 26.2432 115.939 26.0264 115.834 25.8271C115.734 25.6221 115.529 25.4375 115.219 25.2734C114.908 25.1035 114.439 24.9541 113.812 24.8252C112.758 24.6025 111.923 24.2861 111.307 23.876C110.692 23.4658 110.385 22.8711 110.385 22.0918C110.385 21.5879 110.528 21.1279 110.815 20.7119C111.108 20.29 111.518 19.9531 112.046 19.7012C112.579 19.4434 113.2 19.3145 113.909 19.3145C114.671 19.3145 115.321 19.4492 115.86 19.7188C116.405 19.9824 116.821 20.3398 117.108 20.791C117.395 21.2363 117.539 21.7314 117.539 22.2764H115.895C115.895 21.8838 115.722 21.5117 115.377 21.1602C115.037 20.8086 114.548 20.6328 113.909 20.6328C113.235 20.6328 112.752 20.7822 112.459 21.0811C112.172 21.374 112.028 21.6934 112.028 22.0391C112.028 22.2734 112.087 22.4785 112.204 22.6543C112.321 22.8242 112.535 22.9766 112.846 23.1113C113.162 23.2461 113.619 23.3809 114.217 23.5156C115.383 23.7852 116.244 24.1367 116.801 24.5703C117.357 24.998 117.636 25.5957 117.636 26.3633C117.636 27.1953 117.299 27.8721 116.625 28.3936C115.957 28.915 115.066 29.1758 113.953 29.1758C113.115 29.1758 112.406 29.0264 111.826 28.7275C111.246 28.4287 110.806 28.0449 110.508 27.5762C110.209 27.1016 110.059 26.6006 110.059 26.0732H111.703C111.732 26.5186 111.861 26.873 112.09 27.1367C112.324 27.3945 112.608 27.5791 112.942 27.6904C113.282 27.8018 113.619 27.8574 113.953 27.8574C114.615 27.8574 115.119 27.7256 115.465 27.4619C115.816 27.1982 115.992 26.8701 115.992 26.4775Z" fill="#373B5A"/>
<path d="M124.429 29.1758C123.544 29.1758 122.774 28.9795 122.117 28.5869C121.467 28.1885 120.96 27.6436 120.597 26.9521C120.239 26.2607 120.061 25.4697 120.061 24.5791V24.2012C120.061 23.1699 120.257 22.291 120.65 21.5645C121.048 20.832 121.564 20.2754 122.196 19.8945C122.835 19.5078 123.509 19.3145 124.218 19.3145C125.132 19.3145 125.876 19.5195 126.45 19.9297C127.03 20.334 127.455 20.8877 127.725 21.5908C128 22.2881 128.138 23.0791 128.138 23.9639V24.6934H121.704C121.722 25.2793 121.842 25.8125 122.065 26.293C122.293 26.7676 122.615 27.1484 123.031 27.4355C123.447 27.7168 123.943 27.8574 124.517 27.8574C125.091 27.8574 125.577 27.7402 125.976 27.5059C126.374 27.2715 126.723 26.958 127.022 26.5654L128.015 27.3389C127.71 27.8076 127.271 28.2324 126.696 28.6133C126.128 28.9883 125.372 29.1758 124.429 29.1758ZM124.218 20.6328C123.573 20.6328 123.028 20.8701 122.583 21.3447C122.144 21.8193 121.868 22.4961 121.757 23.375H126.494V23.252C126.471 22.8301 126.386 22.4199 126.239 22.0215C126.093 21.6172 125.859 21.2861 125.536 21.0283C125.214 20.7646 124.775 20.6328 124.218 20.6328Z" fill="#373B5A"/>
<path d="M132.4 29H130.756V15.5H132.4V20.6152C132.74 20.2109 133.144 19.8945 133.613 19.666C134.087 19.4316 134.615 19.3145 135.195 19.3145C136.132 19.3145 136.873 19.5811 137.418 20.1143C137.969 20.6416 138.245 21.5264 138.245 22.7686V29H136.601V22.751C136.601 22.001 136.44 21.4678 136.118 21.1514C135.795 20.835 135.327 20.6768 134.711 20.6768C134.19 20.6768 133.73 20.8174 133.331 21.0986C132.939 21.3799 132.628 21.7461 132.4 22.1973V29Z" fill="#373B5A"/>
<path d="M140.968 24.1484C140.968 23.2285 141.144 22.4053 141.496 21.6787C141.847 20.9521 142.345 20.3779 142.99 19.9561C143.634 19.5283 144.399 19.3145 145.284 19.3145C146.18 19.3145 146.954 19.5283 147.604 19.9561C148.255 20.3779 148.753 20.9521 149.098 21.6787C149.45 22.4053 149.626 23.2285 149.626 24.1484V24.3506C149.626 25.2646 149.45 26.0879 149.098 26.8203C148.753 27.5469 148.255 28.1211 147.604 28.543C146.96 28.9648 146.192 29.1758 145.301 29.1758C144.411 29.1758 143.64 28.9648 142.99 28.543C142.345 28.1211 141.847 27.5469 141.496 26.8203C141.144 26.0879 140.968 25.2646 140.968 24.3506V24.1484ZM142.612 24.3506C142.612 24.9775 142.712 25.5576 142.911 26.0908C143.11 26.624 143.406 27.0518 143.799 27.374C144.197 27.6963 144.698 27.8574 145.301 27.8574C145.899 27.8574 146.394 27.6963 146.787 27.374C147.185 27.0518 147.484 26.624 147.683 26.0908C147.882 25.5576 147.982 24.9775 147.982 24.3506V24.1484C147.982 23.5215 147.882 22.9414 147.683 22.4082C147.484 21.875 147.185 21.4473 146.787 21.125C146.388 20.7969 145.887 20.6328 145.284 20.6328C144.692 20.6328 144.197 20.7969 143.799 21.125C143.4 21.4473 143.101 21.875 142.902 22.4082C142.709 22.9414 142.612 23.5215 142.612 24.1484V24.3506Z" fill="#373B5A"/>
<path d="M154.178 29H152.534V15.5H154.178V29Z" fill="#373B5A"/>
<path d="M157.095 24.166C157.095 23.1992 157.25 22.3525 157.561 21.626C157.877 20.8936 158.317 20.3252 158.879 19.9209C159.442 19.5166 160.101 19.3145 160.857 19.3145C161.431 19.3145 161.935 19.4111 162.368 19.6045C162.802 19.7979 163.174 20.0732 163.485 20.4307V15.5H165.128V29H163.625L163.546 27.9893C163.236 28.3701 162.855 28.6631 162.404 28.8682C161.958 29.0732 161.437 29.1758 160.839 29.1758C160.095 29.1758 159.442 28.9678 158.879 28.5518C158.317 28.1299 157.877 27.5557 157.561 26.8291C157.25 26.1025 157.095 25.2764 157.095 24.3506V24.166ZM158.739 24.3506C158.739 24.9834 158.823 25.5635 158.993 26.0908C159.169 26.6123 159.442 27.0283 159.811 27.3389C160.18 27.6494 160.657 27.8047 161.243 27.8047C161.812 27.8047 162.272 27.6758 162.623 27.418C162.981 27.1602 163.268 26.832 163.485 26.4336V22.0127C163.274 21.626 162.989 21.3066 162.632 21.0547C162.275 20.8027 161.818 20.6768 161.261 20.6768C160.669 20.6768 160.186 20.835 159.811 21.1514C159.442 21.4678 159.169 21.8926 158.993 22.4258C158.823 22.9531 158.739 23.5332 158.739 24.166V24.3506Z" fill="#373B5A"/>
<path d="M173.908 26.4775C173.908 26.2432 173.855 26.0264 173.75 25.8271C173.65 25.6221 173.445 25.4375 173.134 25.2734C172.824 25.1035 172.355 24.9541 171.728 24.8252C170.673 24.6025 169.838 24.2861 169.223 23.876C168.608 23.4658 168.3 22.8711 168.3 22.0918C168.3 21.5879 168.444 21.1279 168.731 20.7119C169.024 20.29 169.434 19.9531 169.961 19.7012C170.495 19.4434 171.116 19.3145 171.825 19.3145C172.586 19.3145 173.237 19.4492 173.776 19.7188C174.321 19.9824 174.737 20.3398 175.024 20.791C175.311 21.2363 175.455 21.7314 175.455 22.2764H173.811C173.811 21.8838 173.638 21.5117 173.293 21.1602C172.953 20.8086 172.463 20.6328 171.825 20.6328C171.151 20.6328 170.668 20.7822 170.375 21.0811C170.087 21.374 169.944 21.6934 169.944 22.0391C169.944 22.2734 170.002 22.4785 170.12 22.6543C170.237 22.8242 170.451 22.9766 170.761 23.1113C171.078 23.2461 171.535 23.3809 172.132 23.5156C173.298 23.7852 174.16 24.1367 174.716 24.5703C175.273 24.998 175.551 25.5957 175.551 26.3633C175.551 27.1953 175.214 27.8721 174.541 28.3936C173.873 28.915 172.982 29.1758 171.869 29.1758C171.031 29.1758 170.322 29.0264 169.742 28.7275C169.162 28.4287 168.722 28.0449 168.423 27.5762C168.125 27.1016 167.975 26.6006 167.975 26.0732H169.619C169.648 26.5186 169.777 26.873 170.005 27.1367C170.24 27.3945 170.524 27.5791 170.858 27.6904C171.198 27.8018 171.535 27.8574 171.869 27.8574C172.531 27.8574 173.035 27.7256 173.38 27.4619C173.732 27.1982 173.908 26.8701 173.908 26.4775Z" fill="#373B5A"/>
<defs>
<clipPath id="clip0">
<rect width="45" height="45" fill="white"/>
</clipPath>
</defs>
</svg>
