<?xml version="1.0" encoding="utf-8"?>
<!-- Generator: Adobe Illustrator 24.1.1, SVG Export Plug-In . SVG Version: 6.00 Build 0)  -->
<svg version="1.1" id="Layer_1" xmlns="http://www.w3.org/2000/svg" xmlns:xlink="http://www.w3.org/1999/xlink" x="0px" y="0px"
	 viewBox="0 0 152 46" style="enable-background:new 0 0 152 46;" xml:space="preserve">
<style type="text/css">
	.st0{fill:#6C6DF5;}
	.st1{fill:#373B5A;}
</style>
<g>
	<g>
		<path class="st0" d="M29.9,44H16.2c-5,0-9.1-4.1-9.1-9.1V12.1c0-5,4.1-9.1,9.1-9.1h13.7c5,0,9.1,4.1,9.1,9.1v2.4
			c0,0.7-0.6,1.3-1.3,1.3s-1.3-0.6-1.3-1.3v-2.4c0-3.6-2.9-6.6-6.6-6.6H16.2c-3.6,0-6.6,2.9-6.6,6.6V35c0,3.6,2.9,6.6,6.6,6.6h13.7
			c3.6,0,6.6-2.9,6.6-6.6v-2.8c0-0.7,0.6-1.3,1.3-1.3s1.3,0.6,1.3,1.3V35C38.9,40,34.9,44,29.9,44z"/>
	</g>
	<g>
		<path class="st0" d="M48.5,24.8h-26c-0.7,0-1.3-0.6-1.3-1.2c0-0.7,0.6-1.3,1.3-1.3h26c0.7,0,1.3,0.6,1.3,1.3
			C49.8,24.2,49.2,24.8,48.5,24.8z"/>
	</g>
	<g>
		<path class="st0" d="M48.5,24.8c-0.3,0-0.6-0.1-0.9-0.4l-7.1-7.1c-0.5-0.5-0.5-1.3,0-1.8s1.3-0.5,1.8,0l7.1,7.1
			c0.5,0.5,0.5,1.3,0,1.8C49.2,24.7,48.9,24.8,48.5,24.8z"/>
	</g>
	<g>
		<path class="st0" d="M41.5,31.8c-0.3,0-0.6-0.1-0.9-0.4c-0.5-0.5-0.5-1.3,0-1.8l7.1-7.1c0.5-0.5,1.3-0.5,1.8,0
			c0.5,0.5,0.5,1.3,0,1.8l-7.1,7.1C42.1,31.7,41.8,31.8,41.5,31.8z"/>
	</g>
</g>
<g>
	<g>
		<path class="st1" d="M85.1,28.8H83V16.9h2.1V28.8z M90.5,28.8h-6v-1.7h6V28.8z"/>
		<path class="st1" d="M92.3,24.3c0-0.9,0.2-1.6,0.5-2.3s0.8-1.2,1.4-1.6c0.6-0.4,1.3-0.6,2.2-0.6c0.9,0,1.6,0.2,2.2,0.6
			c0.6,0.4,1.1,0.9,1.4,1.6s0.5,1.4,0.5,2.3v0.2c0,0.9-0.2,1.6-0.5,2.3c-0.3,0.7-0.8,1.2-1.4,1.6S97.3,29,96.4,29
			c-0.9,0-1.6-0.2-2.2-0.6s-1.1-0.9-1.4-1.6c-0.3-0.7-0.5-1.4-0.5-2.3V24.3z M94.3,24.5c0,0.5,0.1,1,0.2,1.4c0.1,0.4,0.4,0.8,0.7,1
			s0.7,0.4,1.2,0.4c0.5,0,0.9-0.1,1.2-0.4s0.5-0.6,0.7-1c0.1-0.4,0.2-0.9,0.2-1.4v-0.2c0-0.5-0.1-1-0.2-1.4c-0.1-0.4-0.4-0.8-0.7-1
			c-0.3-0.3-0.7-0.4-1.2-0.4c-0.5,0-0.9,0.1-1.2,0.4c-0.3,0.3-0.5,0.6-0.7,1c-0.1,0.4-0.2,0.9-0.2,1.4V24.5z"/>
		<path class="st1" d="M102.7,24.3c0-0.9,0.1-1.7,0.4-2.4c0.3-0.7,0.7-1.2,1.2-1.6c0.5-0.4,1.2-0.6,1.9-0.6c0.6,0,1.1,0.1,1.5,0.3
			c0.4,0.2,0.7,0.5,1,0.9c0.3,0.4,0.5,0.9,0.6,1.4c0.2,0.5,0.3,1.1,0.3,1.8v0.5c-0.1,0.8-0.3,1.6-0.5,2.2s-0.6,1.2-1.1,1.5
			c-0.5,0.4-1.1,0.6-1.8,0.6c-0.7,0-1.3-0.2-1.9-0.6c-0.5-0.4-0.9-0.9-1.2-1.6c-0.3-0.7-0.4-1.4-0.4-2.3V24.3z M110.5,20v8.6
			c0,0.8-0.2,1.5-0.5,2c-0.3,0.6-0.8,1-1.4,1.3c-0.6,0.3-1.3,0.4-2.1,0.4c-0.3,0-0.7,0-1.1-0.1c-0.4-0.1-0.8-0.2-1.2-0.5
			c-0.4-0.2-0.7-0.5-1-0.8l0.9-1.2c0.3,0.4,0.7,0.6,1,0.8c0.4,0.2,0.8,0.3,1.2,0.3c0.7,0,1.2-0.2,1.6-0.5c0.4-0.4,0.6-0.9,0.6-1.6
			V22l0.2-2H110.5z M104.7,24.5c0,0.5,0.1,1,0.2,1.4c0.1,0.4,0.4,0.8,0.7,1s0.7,0.4,1.1,0.4c0.5,0,0.8-0.1,1.1-0.3
			c0.3-0.2,0.5-0.5,0.7-0.8c0.2-0.3,0.3-0.7,0.3-1.1v-1.4c0-0.3-0.1-0.6-0.2-0.9c-0.1-0.3-0.2-0.5-0.4-0.7c-0.2-0.2-0.4-0.4-0.6-0.5
			c-0.3-0.1-0.5-0.2-0.9-0.2c-0.5,0-0.9,0.1-1.2,0.4c-0.3,0.3-0.5,0.6-0.7,1c-0.1,0.4-0.2,0.9-0.2,1.4V24.5z"/>
		<path class="st1" d="M113,24.3c0-0.9,0.2-1.6,0.5-2.3s0.8-1.2,1.4-1.6c0.6-0.4,1.3-0.6,2.2-0.6c0.9,0,1.6,0.2,2.2,0.6
			c0.6,0.4,1.1,0.9,1.4,1.6s0.5,1.4,0.5,2.3v0.2c0,0.9-0.2,1.6-0.5,2.3c-0.3,0.7-0.8,1.2-1.4,1.6S118,29,117.1,29
			c-0.9,0-1.6-0.2-2.2-0.6s-1.1-0.9-1.4-1.6c-0.3-0.7-0.5-1.4-0.5-2.3V24.3z M115,24.5c0,0.5,0.1,1,0.2,1.4c0.1,0.4,0.4,0.8,0.7,1
			s0.7,0.4,1.2,0.4c0.5,0,0.9-0.1,1.2-0.4s0.5-0.6,0.7-1c0.1-0.4,0.2-0.9,0.2-1.4v-0.2c0-0.5-0.1-1-0.2-1.4c-0.1-0.4-0.4-0.8-0.7-1
			c-0.3-0.3-0.7-0.4-1.2-0.4c-0.5,0-0.9,0.1-1.2,0.4c-0.3,0.3-0.5,0.6-0.7,1c-0.1,0.4-0.2,0.9-0.2,1.4V24.5z"/>
		<path class="st1" d="M129.9,24.9c0,0.8-0.1,1.5-0.4,2.1s-0.6,1.1-1.1,1.5c-0.5,0.4-1.1,0.5-1.9,0.5c-0.9,0-1.6-0.3-2.1-0.8
			s-0.8-1.4-0.8-2.5V20h2v5.7c0,0.4,0.1,0.7,0.2,1s0.3,0.4,0.5,0.5c0.2,0.1,0.4,0.1,0.7,0.1c0.5,0,1-0.1,1.3-0.3
			c0.3-0.2,0.5-0.5,0.7-0.9c0.1-0.4,0.2-0.8,0.2-1.2L129.9,24.9z M129,20h2v8.8h-1.9l-0.1-2.1V20z"/>
		<path class="st1" d="M137.9,21.5h-5V20h5V21.5z M136.4,17.8v8.5c0,0.3,0,0.5,0.1,0.6s0.2,0.2,0.3,0.3s0.3,0.1,0.5,0.1
			c0.1,0,0.3,0,0.4,0s0.2,0,0.3,0v1.6c-0.2,0.1-0.4,0.1-0.6,0.1S137,29,136.7,29c-0.5,0-0.9-0.1-1.2-0.2c-0.4-0.2-0.6-0.4-0.8-0.8
			c-0.2-0.4-0.3-0.9-0.3-1.5v-8.7H136.4z"/>
	</g>
</g>
</svg>
