<svg xmlns="http://www.w3.org/2000/svg" viewBox="0 0 152 46"><defs><style>.cls-1{fill:#fff;}.cls-2{fill:none;}</style></defs><g id="Layer_2" data-name="Layer 2"><g id="Layer_1-2" data-name="Layer 1"><path class="cls-1" d="M27.05,16.43A1.09,1.09,0,0,0,26,15.34H5.83a1.09,1.09,0,0,0,0,2.18H26A1.09,1.09,0,0,0,27.05,16.43Z"/><path class="cls-1" d="M20.46,20.6H5.83a1.09,1.09,0,1,0,0,2.18H20.46a1.09,1.09,0,1,0,0-2.18Z"/><path class="cls-1" d="M5.83,28.05H20.46a1.1,1.1,0,1,0,0-2.19H5.83a1.1,1.1,0,0,0,0,2.19Z"/><path class="cls-1" d="M5.83,33.31H26a1.09,1.09,0,1,0,0-2.18H5.83a1.09,1.09,0,1,0,0,2.18Z"/><path class="cls-1" d="M32.19,16.2V5.39a3.07,3.07,0,0,0-3.07-3.06H15.74a1.09,1.09,0,1,0,0,2.18H29.12a.89.89,0,0,1,.88.88V16.2a8.2,8.2,0,0,0,0,16.25v8.23a.88.88,0,0,1-.88.88h-26a.88.88,0,0,1-.89-.88v-28H7.29a3.07,3.07,0,0,0,3.07-3.06V4.51H13a1.09,1.09,0,1,0,0-2.18H9.26a1.07,1.07,0,0,0-.77.32L.32,10.82a1.1,1.1,0,0,0-.32.77V40.68a3.08,3.08,0,0,0,3.07,3.07H29.12a3.08,3.08,0,0,0,3.07-3.07V32.45a8.37,8.37,0,0,0,3.13-1.1,1.09,1.09,0,1,0-1.13-1.87,6,6,0,1,1,1.72-1.56,1.11,1.11,0,0,0,.22,1.53,1.13,1.13,0,0,0,.81.2,1.07,1.07,0,0,0,.72-.42,8.11,8.11,0,0,0,1.63-4.91A8.23,8.23,0,0,0,32.19,16.2ZM3.73,10.5,8.17,6.06V9.62a.88.88,0,0,1-.88.88Z"/><path class="cls-1" d="M31.09,29.26a1.1,1.1,0,0,0,1.1-1.09V25.42h2.75a1.1,1.1,0,0,0,0-2.19H32.19V20.47a1.1,1.1,0,0,0-2.19,0v2.76H27.24a1.1,1.1,0,0,0,0,2.19H30v2.75A1.09,1.09,0,0,0,31.09,29.26Z"/><path class="cls-1" d="M84.92,28.37h1.64L82,16.39h-1.4L76,28.37h1.65l1.13-3.13h5Zm-5.67-4.43,2-5.59,2,5.59Z"/><path class="cls-1" d="M94.56,15.73v4.63a3,3,0,0,0-.59-.54,3.19,3.19,0,0,0-1.87-.52,3.06,3.06,0,0,0-1.85.57A3.67,3.67,0,0,0,89,21.46a5.91,5.91,0,0,0-.44,2.38V24A5.72,5.72,0,0,0,89,26.34,3.8,3.8,0,0,0,90.25,28a3,3,0,0,0,1.83.59A3.22,3.22,0,0,0,94,28a2.83,2.83,0,0,0,.65-.6l.07.95H96.1V15.73Zm-.85,11.2a2.21,2.21,0,0,1-1.25.32,2,2,0,0,1-1.34-.44,2.47,2.47,0,0,1-.76-1.17A4.92,4.92,0,0,1,90.11,24v-.18a5,5,0,0,1,.25-1.63A2.58,2.58,0,0,1,91.12,21a2.06,2.06,0,0,1,1.36-.44,2.26,2.26,0,0,1,1,.2,2,2,0,0,1,.71.53,2.87,2.87,0,0,1,.37.54V26a.83.83,0,0,1-.07.13A2.29,2.29,0,0,1,93.71,26.93Z"/><path class="cls-1" d="M105.08,15.73v4.63a2.75,2.75,0,0,0-.59-.54,3.17,3.17,0,0,0-1.87-.52,3.1,3.1,0,0,0-1.85.57,3.75,3.75,0,0,0-1.23,1.59,6.09,6.09,0,0,0-.44,2.38V24a5.89,5.89,0,0,0,.44,2.32A3.88,3.88,0,0,0,100.77,28a3,3,0,0,0,1.84.59A3.26,3.26,0,0,0,104.5,28a2.79,2.79,0,0,0,.64-.6l.08.95h1.4V15.73Zm-.85,11.2a2.16,2.16,0,0,1-1.24.32,2,2,0,0,1-1.35-.44,2.54,2.54,0,0,1-.76-1.17,5.2,5.2,0,0,1-.24-1.62v-.18a5.31,5.31,0,0,1,.24-1.63,2.6,2.6,0,0,1,.77-1.19,2,2,0,0,1,1.35-.44,2.2,2.2,0,0,1,1,.2,2,2,0,0,1,.72.53,2.82,2.82,0,0,1,.36.54V26l-.06.13A2.31,2.31,0,0,1,104.23,26.93Z"/><polygon class="cls-1" points="123.07 16.39 123.07 25.68 117.03 16.39 115.43 16.39 115.43 28.37 117.03 28.37 117.03 19.11 123.04 28.37 124.65 28.37 124.65 16.39 123.07 16.39"/><path class="cls-1" d="M135.4,23.66a6,6,0,0,0-.38-2.23,3.33,3.33,0,0,0-1.19-1.56,3.57,3.57,0,0,0-2.1-.57,3.62,3.62,0,0,0-1.89.54,4,4,0,0,0-1.44,1.57,5.09,5.09,0,0,0-.56,2.47v.35a4.66,4.66,0,0,0,.51,2.22A3.74,3.74,0,0,0,129.77,28a4.09,4.09,0,0,0,2.16.56,3.86,3.86,0,0,0,2.13-.53,4.38,4.38,0,0,0,1.23-1.19l-.93-.73a3.4,3.4,0,0,1-1,.88,2.65,2.65,0,0,1-1.37.33,2.42,2.42,0,0,1-1.41-.41,2.68,2.68,0,0,1-.91-1.11,3.78,3.78,0,0,1-.3-1.44h6Zm-1.54-.56h-4.42a4.53,4.53,0,0,1,.24-1,2.59,2.59,0,0,1,.83-1.13,2,2,0,0,1,1.22-.39,2,2,0,0,1,1.24.36,2.21,2.21,0,0,1,.66.93,4.19,4.19,0,0,1,.23,1.16Z"/><polygon class="cls-1" points="147.78 19.47 146.07 26.22 143.97 19.47 143.74 19.47 142.89 19.47 142.73 19.47 140.66 26.07 138.92 19.47 137.39 19.47 139.97 28.37 140.23 28.37 141 28.37 141.21 28.37 143.32 21.65 145.48 28.37 145.7 28.37 146.46 28.37 146.72 28.37 149.3 19.47 147.78 19.47"/><rect class="cls-2" width="152" height="46"/></g></g></svg>