<svg width="182" height="46" viewBox="0 0 182 46" fill="none" xmlns="http://www.w3.org/2000/svg">
<g clip-path="url(#clip0)">
<path d="M25.1261 28.2788H24.1827C23.6934 28.2788 23.2955 27.881 23.2955 27.3887C23.2955 27.2053 23.3686 27.0317 23.4994 26.9048C24.0477 26.3673 24.5117 25.6478 24.8435 24.8705C24.9124 24.9212 24.9841 24.9579 25.0671 24.9579C25.5971 24.9579 26.2186 23.7814 26.2186 22.9815C26.2186 22.1802 26.1469 21.5312 25.6168 21.5312C25.5521 21.5312 25.4861 21.5411 25.4186 21.5608C25.3806 19.3897 24.8337 16.6782 21.5282 16.6782C18.0793 16.6782 17.6772 19.3826 17.6378 21.5524C17.59 21.5425 17.5408 21.5326 17.4958 21.5326C16.9658 21.5326 16.8927 22.1816 16.8927 22.9829C16.8927 23.7828 17.5155 24.9593 18.0456 24.9593C18.1117 24.9593 18.1721 24.9396 18.2284 24.9071C18.5616 25.6704 19.0171 26.3786 19.5584 26.9076C19.6892 27.0346 19.7623 27.2095 19.7623 27.3915C19.7623 27.8838 19.3658 28.2817 18.8751 28.2817H17.9317C15.9127 28.2817 14.2761 29.9238 14.2761 31.951V32.9682C14.2761 33.6073 14.7935 34.125 15.4304 34.125H27.6288C28.2657 34.125 28.7817 33.6073 28.7817 32.9682V31.951C28.7817 29.921 27.1451 28.2788 25.1261 28.2788Z" fill="#6C6DF5"/>
<path d="M36.0691 18.2158H25.8406C26.1358 18.8718 26.3467 19.6788 26.4367 20.6762C26.6546 20.8116 26.8177 21.0303 26.9513 21.2927H36.0691C36.543 21.2927 36.9254 20.9089 36.9254 20.4349V19.0736C36.9268 18.5995 36.543 18.2158 36.0691 18.2158Z" fill="#6C6DF5"/>
<path d="M36.0693 23.8247H27.161C26.9192 24.7403 26.3231 25.6996 25.4991 25.9578C25.4738 26.0015 25.4443 26.0424 25.4204 26.0875V26.903H36.0679C36.5417 26.903 36.9242 26.5192 36.9242 26.0452V24.6839C36.927 24.2084 36.5432 23.8247 36.0693 23.8247Z" fill="#6C6DF5"/>
<path d="M36.0695 29.4312H29.1155C29.5738 30.1619 29.8452 31.0225 29.8452 31.9465V32.5094H36.0709C36.5447 32.5094 36.9271 32.1257 36.9271 31.6517V30.2903C36.9271 29.8163 36.5433 29.4312 36.0695 29.4312Z" fill="#6C6DF5"/>
<path d="M39.7472 9.6582H11.4531C8.55119 9.6582 6.19897 12.0184 6.19897 14.9302V35.8672C6.19897 38.7775 8.55119 41.1391 11.4531 41.1391H39.7472C42.6478 41.1391 45 38.7775 45 35.8672V14.9302C45.0014 12.0184 42.6478 9.6582 39.7472 9.6582ZM42.5198 35.8672C42.5198 37.4035 41.2755 38.652 39.7458 38.652H11.4531C9.92343 38.652 8.67913 37.4035 8.67913 35.8672V14.9302C8.67913 13.3953 9.92343 12.1468 11.4531 12.1468H39.7472C41.2769 12.1468 42.5212 13.3953 42.5212 14.9302V35.8672H42.5198Z" fill="#6C6DF5"/>
<path d="M5.25417 6.50365H23.6895H32.6512H33.5468C34.7026 6.50365 35.6938 7.21749 36.1085 8.22618H38.6956C38.2049 5.82226 36.0875 4.01367 33.5468 4.01367H31.4477H24.436H5.25417C2.35222 4.01367 0 6.37386 0 9.28566V30.2226C0 32.968 2.09914 35.1984 4.77192 35.4467V32.9553C3.47279 32.7253 2.48157 31.5911 2.48157 30.2212V9.28566C2.48157 7.75217 3.72586 6.50365 5.25417 6.50365Z" fill="#6C6DF5"/>
</g>
<path d="M85.3379 23.0146C85.3379 24.292 85.127 25.3906 84.7051 26.3105C84.2832 27.2305 83.6885 27.9395 82.9209 28.4375C82.1533 28.9297 81.248 29.1758 80.2051 29.1758C79.1973 29.1758 78.3037 28.9297 77.5244 28.4375C76.7451 27.9395 76.1357 27.2305 75.6963 26.3105C75.2568 25.3906 75.0371 24.292 75.0371 23.0146V22.1973C75.0371 20.9199 75.2539 19.8213 75.6875 18.9014C76.127 17.9756 76.7334 17.2666 77.5068 16.7744C78.2861 16.2764 79.1797 16.0273 80.1875 16.0273C81.2305 16.0273 82.1357 16.2764 82.9033 16.7744C83.6768 17.2666 84.2744 17.9756 84.6963 18.9014C85.124 19.8213 85.3379 20.9199 85.3379 22.1973V23.0146ZM83.6504 22.1797C83.6504 20.6562 83.3457 19.4902 82.7363 18.6816C82.127 17.8672 81.2773 17.46 80.1875 17.46C79.1445 17.46 78.3066 17.8672 77.6738 18.6816C77.0469 19.4902 76.7334 20.6562 76.7334 22.1797V23.0146C76.7334 24.5498 77.0498 25.7246 77.6826 26.5391C78.3213 27.3477 79.1621 27.752 80.2051 27.752C81.3066 27.752 82.1562 27.3477 82.7539 26.5391C83.3516 25.7246 83.6504 24.5498 83.6504 23.0146V22.1797Z" fill="#373B5A"/>
<path d="M92.1575 27.8574C92.7376 27.8574 93.2444 27.6816 93.678 27.3301C94.1116 26.9785 94.3518 26.5332 94.3987 25.9941H95.9544C95.9251 26.5566 95.7346 27.0811 95.3831 27.5674C95.0315 28.0479 94.5745 28.4375 94.012 28.7363C93.4495 29.0293 92.8313 29.1758 92.1575 29.1758C91.2024 29.1758 90.4114 28.959 89.7845 28.5254C89.1575 28.0859 88.6888 27.5059 88.3782 26.7852C88.0735 26.0645 87.9212 25.2793 87.9212 24.4297V24.0605C87.9212 23.2051 88.0764 22.4199 88.387 21.7051C88.6975 20.9844 89.1663 20.4072 89.7932 19.9736C90.4202 19.5342 91.2083 19.3145 92.1575 19.3145C92.9016 19.3145 93.552 19.4668 94.1087 19.7715C94.6712 20.0703 95.1106 20.4805 95.427 21.002C95.7493 21.5176 95.9251 22.1035 95.9544 22.7598H94.3987C94.3577 22.168 94.135 21.667 93.7307 21.2568C93.3323 20.8408 92.8079 20.6328 92.1575 20.6328C91.4954 20.6328 90.9739 20.8027 90.593 21.1426C90.218 21.4824 89.9514 21.916 89.7932 22.4434C89.6409 22.9648 89.5647 23.5039 89.5647 24.0605V24.4297C89.5647 24.9863 89.6409 25.5283 89.7932 26.0557C89.9456 26.583 90.2093 27.0166 90.5843 27.3564C90.9651 27.6904 91.4895 27.8574 92.1575 27.8574Z" fill="#373B5A"/>
<path d="M102.317 27.8574C102.897 27.8574 103.404 27.6816 103.837 27.3301C104.271 26.9785 104.511 26.5332 104.558 25.9941H106.114C106.085 26.5566 105.894 27.0811 105.543 27.5674C105.191 28.0479 104.734 28.4375 104.171 28.7363C103.609 29.0293 102.991 29.1758 102.317 29.1758C101.362 29.1758 100.571 28.959 99.9439 28.5254C99.317 28.0859 98.8482 27.5059 98.5377 26.7852C98.233 26.0645 98.0806 25.2793 98.0806 24.4297V24.0605C98.0806 23.2051 98.2359 22.4199 98.5464 21.7051C98.857 20.9844 99.3257 20.4072 99.9527 19.9736C100.58 19.5342 101.368 19.3145 102.317 19.3145C103.061 19.3145 103.711 19.4668 104.268 19.7715C104.831 20.0703 105.27 20.4805 105.586 21.002C105.909 21.5176 106.085 22.1035 106.114 22.7598H104.558C104.517 22.168 104.294 21.667 103.89 21.2568C103.492 20.8408 102.967 20.6328 102.317 20.6328C101.655 20.6328 101.133 20.8027 100.753 21.1426C100.378 21.4824 100.111 21.916 99.9527 22.4434C99.8004 22.9648 99.7242 23.5039 99.7242 24.0605V24.4297C99.7242 24.9863 99.8004 25.5283 99.9527 26.0557C100.105 26.583 100.369 27.0166 100.744 27.3564C101.125 27.6904 101.649 27.8574 102.317 27.8574Z" fill="#373B5A"/>
<path d="M114.48 19.4902H116.124V29H114.559L114.524 28.0684C114.231 28.4141 113.856 28.6865 113.399 28.8857C112.942 29.0791 112.391 29.1758 111.747 29.1758C110.815 29.1758 110.062 28.9004 109.488 28.3496C108.914 27.7988 108.627 26.8906 108.627 25.625V19.4902H110.27V25.6426C110.27 26.2168 110.352 26.6621 110.516 26.9785C110.686 27.2891 110.903 27.5059 111.167 27.6289C111.436 27.7461 111.718 27.8047 112.011 27.8047C112.673 27.8047 113.2 27.6816 113.593 27.4355C113.991 27.1836 114.287 26.8496 114.48 26.4336V19.4902Z" fill="#373B5A"/>
<path d="M120.957 32.6562H119.314V19.4902H120.808L120.896 20.5273C121.218 20.1348 121.608 19.8359 122.065 19.6309C122.522 19.4199 123.049 19.3145 123.647 19.3145C124.443 19.3145 125.117 19.5166 125.668 19.9209C126.219 20.3252 126.638 20.8936 126.925 21.626C127.212 22.3525 127.356 23.1992 127.356 24.166V24.3506C127.356 25.2764 127.212 26.1025 126.925 26.8291C126.638 27.5557 126.219 28.1299 125.668 28.5518C125.123 28.9678 124.458 29.1758 123.673 29.1758C123.087 29.1758 122.568 29.082 122.117 28.8945C121.666 28.707 121.279 28.4375 120.957 28.0859V32.6562ZM125.712 24.166C125.712 23.5332 125.621 22.9531 125.44 22.4258C125.264 21.8926 124.985 21.4678 124.605 21.1514C124.23 20.835 123.746 20.6768 123.154 20.6768C122.609 20.6768 122.158 20.8027 121.801 21.0547C121.449 21.3008 121.168 21.6113 120.957 21.9863V26.5654C121.168 26.9404 121.449 27.251 121.801 27.4971C122.158 27.7373 122.615 27.8574 123.172 27.8574C123.758 27.8574 124.238 27.6963 124.613 27.374C124.988 27.0518 125.264 26.627 125.44 26.0996C125.621 25.5664 125.712 24.9834 125.712 24.3506V24.166Z" fill="#373B5A"/>
<path d="M135.748 22.4785C135.748 21.9102 135.579 21.459 135.239 21.125C134.905 20.7852 134.41 20.6152 133.753 20.6152C133.144 20.6152 132.652 20.7676 132.277 21.0723C131.902 21.377 131.714 21.7285 131.714 22.127H130.071C130.071 21.6699 130.226 21.2275 130.537 20.7998C130.847 20.3662 131.284 20.0117 131.846 19.7363C132.414 19.4551 133.082 19.3145 133.85 19.3145C134.887 19.3145 135.737 19.5781 136.399 20.1055C137.061 20.6328 137.392 21.4297 137.392 22.4961V26.9258C137.392 27.2422 137.418 27.5791 137.471 27.9365C137.53 28.2939 137.615 28.6016 137.726 28.8594V29H136.012C135.959 28.8828 135.912 28.7363 135.871 28.5605C135.836 28.3848 135.807 28.2002 135.784 28.0068C135.479 28.3291 135.098 28.6045 134.641 28.833C134.19 29.0615 133.671 29.1758 133.085 29.1758C132.441 29.1758 131.875 29.0527 131.389 28.8066C130.909 28.5547 130.534 28.2148 130.264 27.7871C130 27.3594 129.869 26.8848 129.869 26.3633C129.869 25.3379 130.255 24.5615 131.029 24.0342C131.802 23.501 132.842 23.2344 134.149 23.2344H135.748V22.4785ZM133.323 27.7695C133.909 27.7695 134.415 27.623 134.843 27.3301C135.271 27.0312 135.573 26.7002 135.748 26.3369V24.377H134.412C133.487 24.377 132.772 24.5234 132.268 24.8164C131.764 25.1094 131.512 25.5488 131.512 26.1348C131.512 26.5918 131.664 26.9785 131.969 27.2949C132.28 27.6113 132.731 27.7695 133.323 27.7695Z" fill="#373B5A"/>
<path d="M144.669 20.7295H142.893V26.6445C142.893 27.1367 142.999 27.4502 143.21 27.585C143.426 27.7197 143.67 27.7871 143.939 27.7871C144.074 27.7871 144.215 27.7754 144.361 27.752C144.513 27.7285 144.625 27.708 144.695 27.6904L144.704 29C144.575 29.041 144.405 29.0791 144.194 29.1143C143.989 29.1553 143.74 29.1758 143.447 29.1758C143.049 29.1758 142.682 29.0967 142.348 28.9385C142.014 28.7803 141.748 28.5166 141.549 28.1475C141.349 27.7725 141.25 27.2686 141.25 26.6357V20.7295H139.518V19.4902H141.25V17.1787H142.893V19.4902H144.669V20.7295Z" fill="#373B5A"/>
<path d="M147.296 16.959C147.296 16.7012 147.375 16.4814 147.533 16.2998C147.697 16.1182 147.937 16.0273 148.254 16.0273C148.57 16.0273 148.811 16.1182 148.975 16.2998C149.144 16.4814 149.229 16.7012 149.229 16.959C149.229 17.2109 149.144 17.4277 148.975 17.6094C148.811 17.7852 148.57 17.873 148.254 17.873C147.937 17.873 147.697 17.7852 147.533 17.6094C147.375 17.4277 147.296 17.2109 147.296 16.959ZM149.062 29H147.419V19.4902H149.062V29Z" fill="#373B5A"/>
<path d="M151.953 24.1484C151.953 23.2285 152.129 22.4053 152.481 21.6787C152.832 20.9521 153.33 20.3779 153.975 19.9561C154.619 19.5283 155.384 19.3145 156.269 19.3145C157.165 19.3145 157.939 19.5283 158.589 19.9561C159.239 20.3779 159.738 20.9521 160.083 21.6787C160.435 22.4053 160.611 23.2285 160.611 24.1484V24.3506C160.611 25.2646 160.435 26.0879 160.083 26.8203C159.738 27.5469 159.239 28.1211 158.589 28.543C157.945 28.9648 157.177 29.1758 156.286 29.1758C155.396 29.1758 154.625 28.9648 153.975 28.543C153.33 28.1211 152.832 27.5469 152.481 26.8203C152.129 26.0879 151.953 25.2646 151.953 24.3506V24.1484ZM153.597 24.3506C153.597 24.9775 153.697 25.5576 153.896 26.0908C154.095 26.624 154.391 27.0518 154.783 27.374C155.182 27.6963 155.683 27.8574 156.286 27.8574C156.884 27.8574 157.379 27.6963 157.772 27.374C158.17 27.0518 158.469 26.624 158.668 26.0908C158.867 25.5576 158.967 24.9775 158.967 24.3506V24.1484C158.967 23.5215 158.867 22.9414 158.668 22.4082C158.469 21.875 158.17 21.4473 157.772 21.125C157.373 20.7969 156.872 20.6328 156.269 20.6328C155.677 20.6328 155.182 20.7969 154.783 21.125C154.385 21.4473 154.086 21.875 153.887 22.4082C153.694 22.9414 153.597 23.5215 153.597 24.1484V24.3506Z" fill="#373B5A"/>
<path d="M165.022 29H163.378V19.4902H164.934L164.987 20.6592C165.327 20.2373 165.737 19.9092 166.217 19.6748C166.698 19.4346 167.231 19.3145 167.817 19.3145C168.754 19.3145 169.496 19.5811 170.041 20.1143C170.591 20.6416 170.867 21.5264 170.867 22.7686V29H169.223V22.751C169.223 22.001 169.062 21.4678 168.74 21.1514C168.418 20.835 167.949 20.6768 167.334 20.6768C166.812 20.6768 166.352 20.8174 165.954 21.0986C165.561 21.3799 165.251 21.7461 165.022 22.1973V29Z" fill="#373B5A"/>
<path d="M179.585 26.4775C179.585 26.2432 179.532 26.0264 179.427 25.8271C179.327 25.6221 179.122 25.4375 178.811 25.2734C178.501 25.1035 178.032 24.9541 177.405 24.8252C176.35 24.6025 175.515 24.2861 174.9 23.876C174.285 23.4658 173.977 22.8711 173.977 22.0918C173.977 21.5879 174.121 21.1279 174.408 20.7119C174.701 20.29 175.111 19.9531 175.638 19.7012C176.172 19.4434 176.793 19.3145 177.502 19.3145C178.263 19.3145 178.914 19.4492 179.453 19.7188C179.998 19.9824 180.414 20.3398 180.701 20.791C180.988 21.2363 181.132 21.7314 181.132 22.2764H179.488C179.488 21.8838 179.315 21.5117 178.97 21.1602C178.63 20.8086 178.14 20.6328 177.502 20.6328C176.828 20.6328 176.345 20.7822 176.052 21.0811C175.764 21.374 175.621 21.6934 175.621 22.0391C175.621 22.2734 175.679 22.4785 175.797 22.6543C175.914 22.8242 176.128 22.9766 176.438 23.1113C176.755 23.2461 177.212 23.3809 177.809 23.5156C178.975 23.7852 179.837 24.1367 180.393 24.5703C180.95 24.998 181.228 25.5957 181.228 26.3633C181.228 27.1953 180.891 27.8721 180.218 28.3936C179.55 28.915 178.659 29.1758 177.546 29.1758C176.708 29.1758 175.999 29.0264 175.419 28.7275C174.839 28.4287 174.399 28.0449 174.1 27.5762C173.802 27.1016 173.652 26.6006 173.652 26.0732H175.296C175.325 26.5186 175.454 26.873 175.682 27.1367C175.917 27.3945 176.201 27.5791 176.535 27.6904C176.875 27.8018 177.212 27.8574 177.546 27.8574C178.208 27.8574 178.712 27.7256 179.057 27.4619C179.409 27.1982 179.585 26.8701 179.585 26.4775Z" fill="#373B5A"/>
<defs>
<clipPath id="clip0">
<rect width="45" height="45.1525" fill="white"/>
</clipPath>
</defs>
</svg>
