<svg width="182" height="46" viewBox="0 0 182 46" fill="none" xmlns="http://www.w3.org/2000/svg">
<g clip-path="url(#clip0)">
<path d="M25.1259 28.2788H24.1825C23.6932 28.2788 23.2953 27.881 23.2953 27.3887C23.2953 27.2053 23.3684 27.0317 23.4991 26.9048C24.0475 26.3673 24.5115 25.6478 24.8433 24.8705C24.9122 24.9212 24.9839 24.9579 25.0668 24.9579C25.5969 24.9579 26.2183 23.7814 26.2183 22.9815C26.2183 22.1802 26.1466 21.5312 25.6166 21.5312C25.5519 21.5312 25.4858 21.5411 25.4183 21.5608C25.3804 19.3897 24.8334 16.6782 21.528 16.6782C18.0791 16.6782 17.677 19.3826 17.6376 21.5524C17.5898 21.5425 17.5406 21.5326 17.4956 21.5326C16.9655 21.5326 16.8924 22.1816 16.8924 22.9829C16.8924 23.7828 17.5153 24.9593 18.0453 24.9593C18.1114 24.9593 18.1719 24.9396 18.2281 24.9071C18.5613 25.6704 19.0169 26.3786 19.5582 26.9076C19.6889 27.0346 19.762 27.2095 19.762 27.3915C19.762 27.8838 19.3655 28.2817 18.8749 28.2817H17.9314C15.9124 28.2817 14.2759 29.9238 14.2759 31.951V32.9682C14.2759 33.6073 14.7933 34.125 15.4302 34.125H27.6285C28.2654 34.125 28.7814 33.6073 28.7814 32.9682V31.951C28.7814 29.921 27.1449 28.2788 25.1259 28.2788Z" fill="white"/>
<path d="M36.0694 18.2158H25.8408C26.1361 18.8718 26.347 19.6788 26.437 20.6762C26.6549 20.8116 26.818 21.0303 26.9516 21.2927H36.0694C36.5432 21.2927 36.9256 20.9089 36.9256 20.4349V19.0736C36.927 18.5995 36.5432 18.2158 36.0694 18.2158Z" fill="white"/>
<path d="M36.0693 23.8247H27.161C26.9192 24.7403 26.3231 25.6996 25.4991 25.9578C25.4738 26.0015 25.4443 26.0424 25.4204 26.0875V26.903H36.0679C36.5417 26.903 36.9242 26.5192 36.9242 26.0452V24.6839C36.927 24.2084 36.5432 23.8247 36.0693 23.8247Z" fill="white"/>
<path d="M36.0692 29.4312H29.1152C29.5736 30.1619 29.8449 31.0225 29.8449 31.9465V32.5094H36.0707C36.5445 32.5094 36.9269 32.1257 36.9269 31.6517V30.2903C36.9269 29.8163 36.5431 29.4312 36.0692 29.4312Z" fill="white"/>
<path d="M39.7475 9.6582H11.4534C8.55143 9.6582 6.19922 12.0184 6.19922 14.9302V35.8672C6.19922 38.7775 8.55143 41.1391 11.4534 41.1391H39.7475C42.648 41.1391 45.0002 38.7775 45.0002 35.8672V14.9302C45.0016 12.0184 42.648 9.6582 39.7475 9.6582ZM42.5201 35.8672C42.5201 37.4035 41.2758 38.652 39.7461 38.652H11.4534C9.92368 38.652 8.67938 37.4035 8.67938 35.8672V14.9302C8.67938 13.3953 9.92368 12.1468 11.4534 12.1468H39.7475C41.2772 12.1468 42.5215 13.3953 42.5215 14.9302V35.8672H42.5201Z" fill="white"/>
<path d="M5.25417 6.50365H23.6895H32.6512H33.5468C34.7026 6.50365 35.6938 7.21749 36.1085 8.22618H38.6956C38.2049 5.82226 36.0875 4.01367 33.5468 4.01367H31.4477H24.436H5.25417C2.35222 4.01367 0 6.37386 0 9.28566V30.2226C0 32.968 2.09914 35.1984 4.77192 35.4467V32.9553C3.47279 32.7253 2.48157 31.5911 2.48157 30.2212V9.28566C2.48157 7.75217 3.72586 6.50365 5.25417 6.50365Z" fill="white"/>
</g>
<path d="M85.5312 22.9355C85.5312 24.2305 85.3086 25.3438 84.8633 26.2754C84.418 27.207 83.7969 27.9248 83 28.4287C82.2031 28.9268 81.2744 29.1758 80.2139 29.1758C79.1709 29.1758 78.2451 28.9268 77.4365 28.4287C76.6338 27.9248 76.0039 27.207 75.5469 26.2754C75.0957 25.3438 74.8701 24.2305 74.8701 22.9355V22.2764C74.8701 20.9814 75.0957 19.8682 75.5469 18.9365C75.998 18.0049 76.625 17.2871 77.4277 16.7832C78.2305 16.2793 79.1533 16.0273 80.1963 16.0273C81.2568 16.0273 82.1855 16.2793 82.9824 16.7832C83.7852 17.2871 84.4092 18.0049 84.8545 18.9365C85.3057 19.8682 85.5312 20.9814 85.5312 22.2764V22.9355ZM83.2549 22.2588C83.2549 20.8408 82.9854 19.7627 82.4463 19.0244C81.9131 18.2803 81.1631 17.9082 80.1963 17.9082C79.2471 17.9082 78.5029 18.2803 77.9639 19.0244C77.4248 19.7627 77.1553 20.8408 77.1553 22.2588V22.9355C77.1553 24.3477 77.4277 25.4287 77.9727 26.1787C78.5176 26.9287 79.2646 27.3037 80.2139 27.3037C81.1865 27.3037 81.9365 26.9287 82.4639 26.1787C82.9912 25.4287 83.2549 24.3477 83.2549 22.9355V22.2588Z" fill="white"/>
<path d="M92.1136 27.4268C92.6233 27.4268 93.0511 27.2773 93.3968 26.9785C93.7483 26.6797 93.9388 26.2959 93.968 25.8271H96.0247C96.0071 26.4541 95.8225 27.0225 95.471 27.5322C95.1194 28.0361 94.6536 28.4375 94.0735 28.7363C93.4934 29.0293 92.846 29.1758 92.1311 29.1758C91.1643 29.1758 90.3587 28.9619 89.7141 28.5342C89.0755 28.1006 88.5979 27.5234 88.2815 26.8027C87.9651 26.0762 87.8069 25.2734 87.8069 24.3945V24.0957C87.8069 23.2168 87.9651 22.417 88.2815 21.6963C88.5979 20.9697 89.0755 20.3926 89.7141 19.9648C90.3587 19.5312 91.1643 19.3145 92.1311 19.3145C92.8929 19.3145 93.5638 19.4668 94.1438 19.7715C94.7239 20.0703 95.178 20.4922 95.5061 21.0371C95.8343 21.5762 96.0071 22.2031 96.0247 22.918H93.968C93.9446 22.4082 93.7688 21.9717 93.4407 21.6084C93.1184 21.2451 92.6731 21.0635 92.1048 21.0635C91.5423 21.0635 91.1057 21.2129 90.7952 21.5117C90.4905 21.8047 90.2796 22.1826 90.1624 22.6455C90.0452 23.1084 89.9866 23.5918 89.9866 24.0957V24.3945C89.9866 24.9102 90.0452 25.3994 90.1624 25.8623C90.2796 26.3252 90.4905 26.7031 90.7952 26.9961C91.0999 27.2832 91.5393 27.4268 92.1136 27.4268Z" fill="white"/>
<path d="M102.255 27.4268C102.765 27.4268 103.193 27.2773 103.539 26.9785C103.89 26.6797 104.081 26.2959 104.11 25.8271H106.167C106.149 26.4541 105.964 27.0225 105.613 27.5322C105.261 28.0361 104.795 28.4375 104.215 28.7363C103.635 29.0293 102.988 29.1758 102.273 29.1758C101.306 29.1758 100.501 28.9619 99.856 28.5342C99.2173 28.1006 98.7398 27.5234 98.4234 26.8027C98.107 26.0762 97.9488 25.2734 97.9488 24.3945V24.0957C97.9488 23.2168 98.107 22.417 98.4234 21.6963C98.7398 20.9697 99.2173 20.3926 99.856 19.9648C100.501 19.5312 101.306 19.3145 102.273 19.3145C103.035 19.3145 103.706 19.4668 104.286 19.7715C104.866 20.0703 105.32 20.4922 105.648 21.0371C105.976 21.5762 106.149 22.2031 106.167 22.918H104.11C104.086 22.4082 103.911 21.9717 103.583 21.6084C103.26 21.2451 102.815 21.0635 102.247 21.0635C101.684 21.0635 101.248 21.2129 100.937 21.5117C100.632 21.8047 100.421 22.1826 100.304 22.6455C100.187 23.1084 100.128 23.5918 100.128 24.0957V24.3945C100.128 24.9102 100.187 25.3994 100.304 25.8623C100.421 26.3252 100.632 26.7031 100.937 26.9961C101.242 27.2832 101.681 27.4268 102.255 27.4268Z" fill="white"/>
<path d="M114.19 19.4902H116.37V29H114.313L114.261 28.042C113.962 28.3994 113.593 28.6777 113.153 28.877C112.714 29.0762 112.192 29.1758 111.589 29.1758C110.651 29.1758 109.892 28.9004 109.312 28.3496C108.732 27.7988 108.442 26.8936 108.442 25.6338V19.4902H110.622V25.6514C110.622 26.3135 110.771 26.7705 111.07 27.0225C111.369 27.2686 111.723 27.3916 112.134 27.3916C112.673 27.3916 113.106 27.2949 113.434 27.1016C113.768 26.9023 114.02 26.6357 114.19 26.3018V19.4902Z" fill="white"/>
<path d="M121.414 32.6562H119.234V19.4902H121.247L121.335 20.4658C121.634 20.0967 121.994 19.8125 122.416 19.6133C122.838 19.4141 123.324 19.3145 123.875 19.3145C124.678 19.3145 125.355 19.5166 125.905 19.9209C126.456 20.3252 126.872 20.8906 127.153 21.6172C127.441 22.3438 127.584 23.1875 127.584 24.1484V24.333C127.584 25.2588 127.441 26.0879 127.153 26.8203C126.872 27.5469 126.456 28.1211 125.905 28.543C125.36 28.9648 124.693 29.1758 123.901 29.1758C123.362 29.1758 122.888 29.085 122.478 28.9033C122.068 28.7217 121.713 28.4639 121.414 28.1299V32.6562ZM125.404 24.1484C125.404 23.5801 125.331 23.0674 125.185 22.6104C125.044 22.1475 124.816 21.7812 124.499 21.5117C124.189 21.2363 123.781 21.0986 123.277 21.0986C122.815 21.0986 122.431 21.1953 122.126 21.3887C121.821 21.582 121.584 21.8457 121.414 22.1797V26.3193C121.584 26.6475 121.818 26.9141 122.117 27.1191C122.422 27.3242 122.815 27.4268 123.295 27.4268C123.799 27.4268 124.206 27.2861 124.517 27.0049C124.827 26.7236 125.053 26.3486 125.193 25.8799C125.334 25.4111 125.404 24.8955 125.404 24.333V24.1484Z" fill="white"/>
<path d="M135.414 22.5752C135.414 22.083 135.277 21.6904 135.001 21.3975C134.732 21.1045 134.322 20.958 133.771 20.958C133.273 20.958 132.874 21.0811 132.576 21.3271C132.283 21.5732 132.136 21.8809 132.136 22.25H129.956C129.956 21.7402 130.118 21.2627 130.44 20.8174C130.762 20.3662 131.216 20.0029 131.802 19.7275C132.394 19.4521 133.091 19.3145 133.894 19.3145C134.966 19.3145 135.851 19.5869 136.548 20.1318C137.246 20.6768 137.594 21.4971 137.594 22.5928V26.7852C137.594 27.6523 137.717 28.3408 137.963 28.8506V29H135.731C135.631 28.7773 135.552 28.4756 135.494 28.0947C135.218 28.3936 134.87 28.6484 134.448 28.8594C134.032 29.0703 133.539 29.1758 132.971 29.1758C132.35 29.1758 131.796 29.0527 131.31 28.8066C130.824 28.5605 130.44 28.2236 130.159 27.7959C129.883 27.3682 129.746 26.8818 129.746 26.3369C129.746 25.3291 130.123 24.5557 130.879 24.0166C131.635 23.4775 132.707 23.208 134.096 23.208H135.414V22.5752ZM133.402 27.4443C133.894 27.4443 134.316 27.3301 134.667 27.1016C135.019 26.8672 135.268 26.6064 135.414 26.3193V24.5527H134.254C133.481 24.5527 132.898 24.6963 132.505 24.9834C132.119 25.2646 131.925 25.6484 131.925 26.1348C131.925 26.5098 132.051 26.8232 132.303 27.0752C132.561 27.3213 132.927 27.4443 133.402 27.4443Z" fill="white"/>
<path d="M144.924 21.0986H143.236V26.3193C143.236 26.7529 143.327 27.0371 143.508 27.1719C143.69 27.3008 143.933 27.3652 144.238 27.3652C144.384 27.3652 144.525 27.3564 144.66 27.3389C144.795 27.3213 144.903 27.3037 144.985 27.2861V28.9648C144.809 29.0234 144.604 29.0732 144.37 29.1143C144.135 29.1553 143.866 29.1758 143.561 29.1758C142.829 29.1758 142.228 28.9736 141.759 28.5693C141.291 28.1592 141.056 27.4619 141.056 26.4775V21.0986H139.527V19.4902H141.056V17.1611H143.236V19.4902H144.924V21.0986Z" fill="white"/>
<path d="M147.252 17.0029C147.252 16.6689 147.36 16.3936 147.577 16.1768C147.794 15.9541 148.096 15.8428 148.482 15.8428C148.869 15.8428 149.174 15.9541 149.396 16.1768C149.619 16.3936 149.73 16.6689 149.73 17.0029C149.73 17.3311 149.619 17.6064 149.396 17.8291C149.174 18.0459 148.869 18.1543 148.482 18.1543C148.096 18.1543 147.794 18.0459 147.577 17.8291C147.36 17.6064 147.252 17.3311 147.252 17.0029ZM149.572 29H147.393V19.4902H149.572V29Z" fill="white"/>
<path d="M152.191 24.1572C152.191 23.2314 152.366 22.4053 152.718 21.6787C153.07 20.9463 153.573 20.3691 154.23 19.9473C154.892 19.5254 155.686 19.3145 156.612 19.3145C157.549 19.3145 158.349 19.5254 159.011 19.9473C159.673 20.3691 160.177 20.9463 160.523 21.6787C160.874 22.4053 161.05 23.2314 161.05 24.1572V24.3418C161.05 25.2617 160.874 26.0879 160.523 26.8203C160.177 27.5469 159.673 28.1211 159.011 28.543C158.355 28.9648 157.561 29.1758 156.629 29.1758C155.698 29.1758 154.901 28.9648 154.239 28.543C153.576 28.1211 153.07 27.5469 152.718 26.8203C152.366 26.0879 152.191 25.2617 152.191 24.3418V24.1572ZM154.37 24.3418C154.37 24.9043 154.447 25.4199 154.599 25.8887C154.757 26.3516 155.003 26.7236 155.337 27.0049C155.671 27.2861 156.102 27.4268 156.629 27.4268C157.151 27.4268 157.575 27.2861 157.904 27.0049C158.238 26.7236 158.481 26.3516 158.633 25.8887C158.791 25.4199 158.87 24.9043 158.87 24.3418V24.1572C158.87 23.6064 158.791 23.0967 158.633 22.6279C158.481 22.1592 158.238 21.7812 157.904 21.4941C157.57 21.207 157.139 21.0635 156.612 21.0635C156.09 21.0635 155.662 21.207 155.328 21.4941C155 21.7812 154.757 22.1592 154.599 22.6279C154.447 23.0967 154.37 23.6064 154.37 24.1572V24.3418Z" fill="white"/>
<path d="M165.699 29H163.519V19.4902H165.567L165.637 20.6152C165.971 20.1992 166.373 19.8799 166.841 19.6572C167.31 19.4287 167.832 19.3145 168.406 19.3145C169.32 19.3145 170.052 19.584 170.603 20.123C171.16 20.6562 171.438 21.5732 171.438 22.874V29H169.25V22.8564C169.25 22.1943 169.106 21.7373 168.819 21.4854C168.538 21.2275 168.127 21.0986 167.588 21.0986C167.155 21.0986 166.777 21.2041 166.455 21.415C166.138 21.6201 165.886 21.8984 165.699 22.25V29Z" fill="white"/>
<path d="M179.611 26.4072C179.611 26.208 179.558 26.0264 179.453 25.8623C179.347 25.6924 179.148 25.54 178.855 25.4053C178.562 25.2705 178.135 25.1416 177.572 25.0186C176.564 24.8076 175.744 24.4854 175.111 24.0518C174.484 23.6182 174.171 23 174.171 22.1973C174.171 21.6816 174.317 21.207 174.61 20.7734C174.909 20.334 175.334 19.9824 175.885 19.7188C176.435 19.4492 177.092 19.3145 177.853 19.3145C178.65 19.3145 179.336 19.4492 179.91 19.7188C180.484 19.9824 180.924 20.3428 181.228 20.7998C181.539 21.251 181.694 21.7637 181.694 22.3379H179.514C179.514 21.9629 179.374 21.6348 179.093 21.3535C178.817 21.0664 178.401 20.9229 177.845 20.9229C177.323 20.9229 176.933 21.043 176.676 21.2832C176.418 21.5176 176.289 21.79 176.289 22.1006C176.289 22.4111 176.421 22.6631 176.684 22.8564C176.954 23.0439 177.467 23.2168 178.222 23.375C179.312 23.6035 180.171 23.9316 180.798 24.3594C181.43 24.7812 181.747 25.4287 181.747 26.3018C181.747 26.8584 181.586 27.3535 181.263 27.7871C180.947 28.2207 180.499 28.5605 179.919 28.8066C179.339 29.0527 178.659 29.1758 177.88 29.1758C177.007 29.1758 176.271 29.0205 175.674 28.71C175.076 28.3994 174.622 28.001 174.311 27.5146C174.007 27.0283 173.854 26.5273 173.854 26.0117H175.955C175.984 26.5801 176.198 26.9814 176.596 27.2158C176.995 27.4502 177.431 27.5674 177.906 27.5674C178.463 27.5674 178.885 27.459 179.172 27.2422C179.465 27.0195 179.611 26.7412 179.611 26.4072Z" fill="white"/>
<defs>
<clipPath id="clip0">
<rect width="45" height="45.1525" fill="white"/>
</clipPath>
</defs>
</svg>
