<svg xmlns="http://www.w3.org/2000/svg" viewBox="0 0 140.16 31.7"><defs><style>.cls-1{fill:#6c6df5;}.cls-2{fill:#373b5a;}</style></defs><g id="Layer_2" data-name="Layer 2"><g id="Layer_1-2" data-name="Layer 1"><path class="cls-1" d="M17.08,31.7H4.17A4.17,4.17,0,0,1,0,27.53V14.28a4.17,4.17,0,0,1,4.17-4.16H17.08a4.17,4.17,0,0,1,4.17,4.16V27.53A4.17,4.17,0,0,1,17.08,31.7ZM4.17,11.62A2.67,2.67,0,0,0,1.5,14.28V27.53A2.68,2.68,0,0,0,4.17,30.2H17.08a2.68,2.68,0,0,0,2.67-2.67V14.28a2.67,2.67,0,0,0-2.67-2.66Z"/><path class="cls-1" d="M28.86,31.7H25.33a2.77,2.77,0,0,1-2.77-2.77v-16a2.77,2.77,0,0,1,2.77-2.76h3.53a2.77,2.77,0,0,1,2.77,2.76v16A2.77,2.77,0,0,1,28.86,31.7ZM25.33,11.62a1.26,1.26,0,0,0-1.27,1.26v16a1.27,1.27,0,0,0,1.27,1.27h3.53a1.27,1.27,0,0,0,1.27-1.27v-16a1.26,1.26,0,0,0-1.27-1.26Z"/><path class="cls-1" d="M28.86,9.06H2.77A2.77,2.77,0,0,1,0,6.3V2.77A2.77,2.77,0,0,1,2.77,0H28.86a2.77,2.77,0,0,1,2.77,2.77V6.3A2.77,2.77,0,0,1,28.86,9.06ZM2.77,1.5A1.27,1.27,0,0,0,1.5,2.77V6.3A1.26,1.26,0,0,0,2.77,7.56H28.86A1.26,1.26,0,0,0,30.13,6.3V2.77A1.27,1.27,0,0,0,28.86,1.5Z"/><path class="cls-2" d="M76.11,15.55a7.12,7.12,0,0,1-.62,3.12,4.81,4.81,0,0,1-8.7,0,7.12,7.12,0,0,1-.63-3.12v-.61a7.16,7.16,0,0,1,.63-3.13,4.72,4.72,0,0,1,1.75-2,5.18,5.18,0,0,1,5.2,0,4.72,4.72,0,0,1,1.75,2,7.16,7.16,0,0,1,.62,3.13ZM74,14.92a6.3,6.3,0,0,0-.34-2.23,2.84,2.84,0,0,0-1-1.37,2.54,2.54,0,0,0-1.54-.47,2.5,2.5,0,0,0-1.52.47,2.91,2.91,0,0,0-1,1.37,6.3,6.3,0,0,0-.34,2.23v.63a6.54,6.54,0,0,0,.34,2.23,2.9,2.9,0,0,0,1,1.38,2.74,2.74,0,0,0,3.07,0,2.81,2.81,0,0,0,1-1.38A6.56,6.56,0,0,0,74,15.55Z"/><path class="cls-2" d="M82.26,19.63l.1,1.59H81.05L78,12.33h2.11Zm1.57-7.3h2.11l-3.07,8.89H81.55l.13-1.61Z"/><path class="cls-2" d="M91.92,21.38a4.38,4.38,0,0,1-2.28-.57,4,4,0,0,1-1.48-1.54,4.64,4.64,0,0,1-.51-2.18v-.34a5.26,5.26,0,0,1,.52-2.42,3.84,3.84,0,0,1,3.52-2.16,3.78,3.78,0,0,1,2.12.55,3.33,3.33,0,0,1,1.27,1.54,5.71,5.71,0,0,1,.42,2.27v.88H88.62V15.94h4.86v-.16a2.84,2.84,0,0,0-.19-1,1.64,1.64,0,0,0-.57-.73,1.8,1.8,0,0,0-1-.28,1.62,1.62,0,0,0-1.09.37,2.24,2.24,0,0,0-.68,1,4.84,4.84,0,0,0-.23,1.56v.34A3.26,3.26,0,0,0,90,18.44a2.23,2.23,0,0,0,.82.95,2.28,2.28,0,0,0,1.27.35,2.76,2.76,0,0,0,1.27-.28,2.82,2.82,0,0,0,1-.81l1.07,1.07a3.94,3.94,0,0,1-1.26,1.15A4.11,4.11,0,0,1,91.92,21.38Z"/><path class="cls-2" d="M99.89,21.22h-2V12.33h1.93l.1,1.74Zm2.68-7-.4,0a3,3,0,0,0-.42,0,2.38,2.38,0,0,0-1.12.24,1.59,1.59,0,0,0-.67.69,2.47,2.47,0,0,0-.27,1.06h-.47a6.66,6.66,0,0,1,.29-2,3.29,3.29,0,0,1,.89-1.42,2.14,2.14,0,0,1,1.48-.52l.38,0a1.22,1.22,0,0,1,.32.08Z"/><path class="cls-2" d="M108.27,19.63l.1,1.59h-1.31L104,12.33h2.11Zm1.57-7.3H112l-3.07,8.89h-1.32l.13-1.61Z"/><path class="cls-2" d="M114,10a1.06,1.06,0,0,1,.31-.78,1.14,1.14,0,0,1,.84-.3,1.2,1.2,0,0,1,.86.3,1.1,1.1,0,0,1,.31.78,1.07,1.07,0,0,1-.31.77,1.2,1.2,0,0,1-.86.3,1.14,1.14,0,0,1-.84-.3A1,1,0,0,1,114,10Zm2.17,11.21h-2V12.33h2Z"/><path class="cls-2" d="M123.09,21.38a4.4,4.4,0,0,1-2.29-.57,3.88,3.88,0,0,1-1.47-1.54,4.53,4.53,0,0,1-.52-2.18v-.34a5.26,5.26,0,0,1,.52-2.42,3.84,3.84,0,0,1,3.52-2.16,3.78,3.78,0,0,1,2.12.55,3.33,3.33,0,0,1,1.27,1.54,5.71,5.71,0,0,1,.42,2.27v.88h-6.88V15.94h4.87v-.16a3.1,3.1,0,0,0-.2-1,1.64,1.64,0,0,0-.57-.73,1.8,1.8,0,0,0-1-.28,1.62,1.62,0,0,0-1.09.37,2.24,2.24,0,0,0-.68,1,4.84,4.84,0,0,0-.23,1.56v.34a3.26,3.26,0,0,0,.28,1.35,2.23,2.23,0,0,0,.82.95,2.28,2.28,0,0,0,1.27.35,2.63,2.63,0,0,0,2.22-1.09l1.07,1.07a3.94,3.94,0,0,1-1.26,1.15A4.1,4.1,0,0,1,123.09,21.38Z"/><path class="cls-2" d="M131.86,19.21l.11,2h-1.29l-2.39-8.89h2Zm1.61-6.88h1.29l-.34,2.17-2.06,6.72h-1.15l.21-2ZM137,19.11l.24,2.11h-1.16L134,14.49l-.34-2.16H135Zm1.18-6.78h2l-2.39,8.89h-1.29l.16-2.09Z"/></g></g></svg>