<svg width="187" height="39" viewBox="0 0 187 39" fill="none" xmlns="http://www.w3.org/2000/svg">
<path d="M38.4082 20.5681H34.0033C33.4038 20.5681 32.8234 20.65 32.271 20.8007C31.1813 18.6586 28.9566 17.1868 26.3931 17.1868H18.6069C16.0434 17.1868 13.8187 18.6586 12.729 20.8007C12.1766 20.65 11.5962 20.5681 10.9967 20.5681H6.5918C2.95708 20.5681 0 23.5252 0 27.1599V34.2015C0 36.3823 1.77425 38.1566 3.95508 38.1566H41.0449C43.2258 38.1566 45 36.3823 45 34.2015V27.1599C45 23.5252 42.0429 20.5681 38.4082 20.5681ZM12.0151 23.7787V35.52H3.95508C3.22813 35.52 2.63672 34.9285 2.63672 34.2016V27.16C2.63672 24.9792 4.41097 23.2049 6.5918 23.2049H10.9967C11.3546 23.2049 11.7011 23.2535 12.0311 23.3431C12.0216 23.4873 12.0151 23.6323 12.0151 23.7787ZM30.3482 35.52H14.6518V23.7787C14.6518 21.5978 16.4261 19.8236 18.6069 19.8236H26.3931C28.5739 19.8236 30.3482 21.5978 30.3482 23.7787V35.52ZM42.3633 34.2016C42.3633 34.9285 41.7719 35.52 41.0449 35.52H32.9849V23.7787C32.9849 23.6321 32.9784 23.4871 32.9689 23.343C33.2989 23.2535 33.6454 23.2048 34.0033 23.2048H38.4082C40.589 23.2048 42.3633 24.9791 42.3633 27.1599V34.2016Z" fill="#6C6DF5"/>
<path d="M8.79433 8.11841C5.56443 8.11841 2.93677 10.7461 2.93677 13.976C2.93668 17.2059 5.56443 19.8335 8.79433 19.8335C12.0241 19.8335 14.6519 17.2059 14.6519 13.976C14.6519 10.7461 12.0242 8.11841 8.79433 8.11841ZM8.79424 17.1968C7.01823 17.1968 5.5734 15.752 5.5734 13.976C5.5734 12.2 7.01823 10.7551 8.79424 10.7551C10.5702 10.7551 12.0151 12.2 12.0151 13.976C12.0151 15.752 10.5702 17.1968 8.79424 17.1968Z" fill="#6C6DF5"/>
<path d="M22.4999 0.843262C18.1848 0.843262 14.6743 4.35379 14.6743 8.66887C14.6743 12.9839 18.1848 16.4945 22.4999 16.4945C26.815 16.4945 30.3255 12.9839 30.3255 8.66887C30.3255 4.35388 26.815 0.843262 22.4999 0.843262ZM22.4999 13.8578C19.6387 13.8578 17.311 11.5301 17.311 8.66887C17.311 5.80776 19.6387 3.47998 22.4999 3.47998C25.3611 3.47998 27.6888 5.80767 27.6888 8.66887C27.6888 11.5301 25.3611 13.8578 22.4999 13.8578Z" fill="#6C6DF5"/>
<path d="M36.2057 8.11841C32.9759 8.11841 30.3481 10.7461 30.3481 13.976C30.3482 17.2059 32.9759 19.8335 36.2057 19.8335C39.4356 19.8335 42.0633 17.2059 42.0633 13.976C42.0633 10.7461 39.4356 8.11841 36.2057 8.11841ZM36.2057 17.1968C34.4298 17.1968 32.9849 15.752 32.9849 13.976C32.985 12.2 34.4298 10.7551 36.2057 10.7551C37.9817 10.7551 39.4265 12.2 39.4265 13.976C39.4265 15.752 37.9817 17.1968 36.2057 17.1968Z" fill="#6C6DF5"/>
<path d="M81.6289 10.9375C83.5508 10.9375 85.0273 11.375 86.0586 12.25C87.0977 13.125 87.6172 14.3945 87.6172 16.0586C87.6172 17.1133 87.3281 18.0391 86.75 18.8359C86.1797 19.6328 85.3828 20.2266 84.3594 20.6172L88.3672 27.8594V28H85.9297L82.2266 21.0859H78.2539V28H75.9805V10.9375H81.6289ZM81.6289 12.7773H78.2539V19.2578H81.6875C82.8984 19.2578 83.8086 18.9453 84.418 18.3203C85.0273 17.6953 85.332 16.9414 85.332 16.0586C85.332 15.0664 85.0391 14.2734 84.4531 13.6797C83.8672 13.0781 82.9258 12.7773 81.6289 12.7773Z" fill="#373B5A"/>
<path d="M96.6631 28.2344C95.4834 28.2344 94.4561 27.9727 93.5811 27.4492C92.7139 26.918 92.0381 26.1914 91.5538 25.2695C91.0772 24.3477 90.8389 23.293 90.8389 22.1055V21.6016C90.8389 20.2266 91.1006 19.0547 91.6241 18.0859C92.1553 17.1094 92.8428 16.3672 93.6866 15.8594C94.5381 15.3438 95.4366 15.0859 96.3819 15.0859C97.6006 15.0859 98.5928 15.3594 99.3584 15.9062C100.132 16.4453 100.698 17.1836 101.058 18.1211C101.425 19.0508 101.608 20.1055 101.608 21.2852V22.2578H93.0303C93.0537 23.0391 93.2139 23.75 93.5108 24.3906C93.8155 25.0234 94.2452 25.5312 94.7998 25.9141C95.3545 26.2891 96.0147 26.4766 96.7803 26.4766C97.5459 26.4766 98.1944 26.3203 98.7256 26.0078C99.2569 25.6953 99.7217 25.2773 100.12 24.7539L101.444 25.7852C101.038 26.4102 100.452 26.9766 99.6866 27.4844C98.9287 27.9844 97.9209 28.2344 96.6631 28.2344ZM96.3819 16.8438C95.5225 16.8438 94.7959 17.1602 94.2022 17.793C93.6162 18.4258 93.2491 19.3281 93.1006 20.5H99.417V20.3359C99.3858 19.7734 99.2725 19.2266 99.0772 18.6953C98.8819 18.1562 98.5694 17.7148 98.1397 17.3711C97.71 17.0195 97.1241 16.8438 96.3819 16.8438Z" fill="#373B5A"/>
<path d="M112.482 24.6367C112.482 24.3242 112.412 24.0352 112.272 23.7695C112.139 23.4961 111.865 23.25 111.451 23.0312C111.037 22.8047 110.412 22.6055 109.576 22.4336C108.17 22.1367 107.057 21.7148 106.236 21.168C105.416 20.6211 105.006 19.8281 105.006 18.7891C105.006 18.1172 105.197 17.5039 105.58 16.9492C105.971 16.3867 106.518 15.9375 107.221 15.6016C107.932 15.2578 108.76 15.0859 109.705 15.0859C110.721 15.0859 111.588 15.2656 112.307 15.625C113.033 15.9766 113.588 16.4531 113.971 17.0547C114.354 17.6484 114.545 18.3086 114.545 19.0352H112.354C112.354 18.5117 112.123 18.0156 111.662 17.5469C111.209 17.0781 110.557 16.8438 109.705 16.8438C108.807 16.8438 108.162 17.043 107.772 17.4414C107.389 17.832 107.197 18.2578 107.197 18.7188C107.197 19.0312 107.275 19.3047 107.432 19.5391C107.588 19.7656 107.873 19.9688 108.287 20.1484C108.709 20.3281 109.318 20.5078 110.115 20.6875C111.67 21.0469 112.818 21.5156 113.561 22.0938C114.303 22.6641 114.674 23.4609 114.674 24.4844C114.674 25.5938 114.225 26.4961 113.326 27.1914C112.436 27.8867 111.248 28.2344 109.764 28.2344C108.647 28.2344 107.701 28.0352 106.928 27.6367C106.154 27.2383 105.568 26.7266 105.17 26.1016C104.772 25.4688 104.572 24.8008 104.572 24.0977H106.764C106.803 24.6914 106.975 25.1641 107.279 25.5156C107.592 25.8594 107.971 26.1055 108.416 26.2539C108.869 26.4023 109.318 26.4766 109.764 26.4766C110.647 26.4766 111.318 26.3008 111.779 25.9492C112.248 25.5977 112.482 25.1602 112.482 24.6367Z" fill="#373B5A"/>
<path d="M118.482 11.9453C118.482 11.6016 118.587 11.3086 118.798 11.0664C119.017 10.8242 119.337 10.7031 119.759 10.7031C120.181 10.7031 120.501 10.8242 120.72 11.0664C120.946 11.3086 121.06 11.6016 121.06 11.9453C121.06 12.2812 120.946 12.5703 120.72 12.8125C120.501 13.0469 120.181 13.1641 119.759 13.1641C119.337 13.1641 119.017 13.0469 118.798 12.8125C118.587 12.5703 118.482 12.2812 118.482 11.9453ZM120.837 28H118.646V15.3203H120.837V28Z" fill="#373B5A"/>
<path d="M124.727 21.5547C124.727 20.2656 124.934 19.1367 125.348 18.168C125.77 17.1914 126.356 16.4336 127.106 15.8945C127.856 15.3555 128.735 15.0859 129.742 15.0859C130.508 15.0859 131.18 15.2148 131.758 15.4727C132.336 15.7305 132.832 16.0977 133.246 16.5742V10H135.438V28H133.434L133.328 26.6523C132.914 27.1602 132.406 27.5508 131.805 27.8242C131.211 28.0977 130.516 28.2344 129.719 28.2344C128.727 28.2344 127.856 27.957 127.106 27.4023C126.356 26.8398 125.77 26.0742 125.348 25.1055C124.934 24.1367 124.727 23.0352 124.727 21.8008V21.5547ZM126.918 21.8008C126.918 22.6445 127.031 23.418 127.258 24.1211C127.492 24.8164 127.856 25.3711 128.348 25.7852C128.84 26.1992 129.477 26.4062 130.258 26.4062C131.016 26.4062 131.629 26.2344 132.098 25.8906C132.574 25.5469 132.957 25.1094 133.246 24.5781V18.6836C132.965 18.168 132.586 17.7422 132.11 17.4062C131.633 17.0703 131.024 16.9023 130.281 16.9023C129.492 16.9023 128.848 17.1133 128.348 17.5352C127.856 17.957 127.492 18.5234 127.258 19.2344C127.031 19.9375 126.918 20.7109 126.918 21.5547V21.8008Z" fill="#373B5A"/>
<path d="M145.034 28.2344C143.855 28.2344 142.827 27.9727 141.952 27.4492C141.085 26.918 140.409 26.1914 139.925 25.2695C139.448 24.3477 139.21 23.293 139.21 22.1055V21.6016C139.21 20.2266 139.472 19.0547 139.995 18.0859C140.527 17.1094 141.214 16.3672 142.058 15.8594C142.909 15.3438 143.808 15.0859 144.753 15.0859C145.972 15.0859 146.964 15.3594 147.73 15.9062C148.503 16.4453 149.07 17.1836 149.429 18.1211C149.796 19.0508 149.98 20.1055 149.98 21.2852V22.2578H141.402C141.425 23.0391 141.585 23.75 141.882 24.3906C142.187 25.0234 142.616 25.5312 143.171 25.9141C143.726 26.2891 144.386 26.4766 145.152 26.4766C145.917 26.4766 146.566 26.3203 147.097 26.0078C147.628 25.6953 148.093 25.2773 148.491 24.7539L149.816 25.7852C149.409 26.4102 148.823 26.9766 148.058 27.4844C147.3 27.9844 146.292 28.2344 145.034 28.2344ZM144.753 16.8438C143.894 16.8438 143.167 17.1602 142.573 17.793C141.988 18.4258 141.62 19.3281 141.472 20.5H147.788V20.3359C147.757 19.7734 147.644 19.2266 147.448 18.6953C147.253 18.1562 146.941 17.7148 146.511 17.3711C146.081 17.0195 145.495 16.8438 144.753 16.8438Z" fill="#373B5A"/>
<path d="M155.662 28H153.471V15.3203H155.545L155.615 16.8789C156.069 16.3164 156.615 15.8789 157.256 15.5664C157.897 15.2461 158.608 15.0859 159.389 15.0859C160.639 15.0859 161.627 15.4414 162.354 16.1523C163.088 16.8555 163.455 18.0352 163.455 19.6914V28H161.264V19.668C161.264 18.668 161.049 17.957 160.619 17.5352C160.19 17.1133 159.565 16.9023 158.744 16.9023C158.049 16.9023 157.436 17.0898 156.905 17.4648C156.381 17.8398 155.967 18.3281 155.662 18.9297V28Z" fill="#373B5A"/>
<path d="M173.029 16.9727H170.661V24.8594C170.661 25.5156 170.802 25.9336 171.083 26.1133C171.372 26.293 171.697 26.3828 172.056 26.3828C172.236 26.3828 172.423 26.3672 172.618 26.3359C172.822 26.3047 172.97 26.2773 173.064 26.2539L173.075 28C172.904 28.0547 172.677 28.1055 172.396 28.1523C172.122 28.207 171.79 28.2344 171.4 28.2344C170.868 28.2344 170.38 28.1289 169.935 27.918C169.49 27.707 169.134 27.3555 168.868 26.8633C168.603 26.3633 168.47 25.6914 168.47 24.8477V16.9727H166.161V15.3203H168.47V12.2383H170.661V15.3203H173.029V16.9727Z" fill="#373B5A"/>
<path d="M183.891 24.6367C183.891 24.3242 183.821 24.0352 183.68 23.7695C183.547 23.4961 183.274 23.25 182.86 23.0312C182.446 22.8047 181.821 22.6055 180.985 22.4336C179.578 22.1367 178.465 21.7148 177.645 21.168C176.825 20.6211 176.414 19.8281 176.414 18.7891C176.414 18.1172 176.606 17.5039 176.989 16.9492C177.379 16.3867 177.926 15.9375 178.629 15.6016C179.34 15.2578 180.168 15.0859 181.114 15.0859C182.129 15.0859 182.996 15.2656 183.715 15.625C184.442 15.9766 184.996 16.4531 185.379 17.0547C185.762 17.6484 185.953 18.3086 185.953 19.0352H183.762C183.762 18.5117 183.532 18.0156 183.071 17.5469C182.618 17.0781 181.965 16.8438 181.114 16.8438C180.215 16.8438 179.571 17.043 179.18 17.4414C178.797 17.832 178.606 18.2578 178.606 18.7188C178.606 19.0312 178.684 19.3047 178.84 19.5391C178.996 19.7656 179.282 19.9688 179.696 20.1484C180.118 20.3281 180.727 20.5078 181.524 20.6875C183.078 21.0469 184.227 21.5156 184.969 22.0938C185.711 22.6641 186.082 23.4609 186.082 24.4844C186.082 25.5938 185.633 26.4961 184.735 27.1914C183.844 27.8867 182.657 28.2344 181.172 28.2344C180.055 28.2344 179.11 28.0352 178.336 27.6367C177.563 27.2383 176.977 26.7266 176.578 26.1016C176.18 25.4688 175.981 24.8008 175.981 24.0977H178.172C178.211 24.6914 178.383 25.1641 178.688 25.5156C179 25.8594 179.379 26.1055 179.825 26.2539C180.278 26.4023 180.727 26.4766 181.172 26.4766C182.055 26.4766 182.727 26.3008 183.188 25.9492C183.657 25.5977 183.891 25.1602 183.891 24.6367Z" fill="#373B5A"/>
</svg>
