<svg width="188" height="39" viewBox="0 0 188 39" fill="none" xmlns="http://www.w3.org/2000/svg">
<path d="M38.4082 20.5681H34.0033C33.4038 20.5681 32.8234 20.65 32.271 20.8007C31.1813 18.6586 28.9566 17.1868 26.3931 17.1868H18.6069C16.0434 17.1868 13.8187 18.6586 12.729 20.8007C12.1766 20.65 11.5962 20.5681 10.9967 20.5681H6.5918C2.95708 20.5681 0 23.5252 0 27.1599V34.2015C0 36.3823 1.77425 38.1566 3.95508 38.1566H41.0449C43.2258 38.1566 45 36.3823 45 34.2015V27.1599C45 23.5252 42.0429 20.5681 38.4082 20.5681ZM12.0151 23.7787V35.52H3.95508C3.22813 35.52 2.63672 34.9285 2.63672 34.2016V27.16C2.63672 24.9792 4.41097 23.2049 6.5918 23.2049H10.9967C11.3546 23.2049 11.7011 23.2535 12.0311 23.3431C12.0216 23.4873 12.0151 23.6323 12.0151 23.7787ZM30.3482 35.52H14.6518V23.7787C14.6518 21.5978 16.4261 19.8236 18.6069 19.8236H26.3931C28.5739 19.8236 30.3482 21.5978 30.3482 23.7787V35.52ZM42.3633 34.2016C42.3633 34.9285 41.7719 35.52 41.0449 35.52H32.9849V23.7787C32.9849 23.6321 32.9784 23.4871 32.9689 23.343C33.2989 23.2535 33.6454 23.2048 34.0033 23.2048H38.4082C40.589 23.2048 42.3633 24.9791 42.3633 27.1599V34.2016Z" fill="white"/>
<path d="M8.79408 8.11841C5.56419 8.11841 2.93652 10.7461 2.93652 13.976C2.93644 17.2059 5.56419 19.8335 8.79408 19.8335C12.0239 19.8335 14.6516 17.2059 14.6516 13.976C14.6516 10.7461 12.024 8.11841 8.79408 8.11841ZM8.79399 17.1968C7.01799 17.1968 5.57315 15.752 5.57315 13.976C5.57315 12.2 7.01799 10.7551 8.79399 10.7551C10.57 10.7551 12.0148 12.2 12.0148 13.976C12.0148 15.752 10.57 17.1968 8.79399 17.1968Z" fill="white"/>
<path d="M22.4999 0.843262C18.1848 0.843262 14.6743 4.35379 14.6743 8.66887C14.6743 12.9839 18.1848 16.4945 22.4999 16.4945C26.815 16.4945 30.3255 12.9839 30.3255 8.66887C30.3255 4.35388 26.815 0.843262 22.4999 0.843262ZM22.4999 13.8578C19.6387 13.8578 17.311 11.5301 17.311 8.66887C17.311 5.80776 19.6387 3.47998 22.4999 3.47998C25.3611 3.47998 27.6888 5.80767 27.6888 8.66887C27.6888 11.5301 25.3611 13.8578 22.4999 13.8578Z" fill="white"/>
<path d="M36.2057 8.11841C32.9759 8.11841 30.3481 10.7461 30.3481 13.976C30.3482 17.2059 32.9759 19.8335 36.2057 19.8335C39.4356 19.8335 42.0633 17.2059 42.0633 13.976C42.0633 10.7461 39.4356 8.11841 36.2057 8.11841ZM36.2057 17.1968C34.4298 17.1968 32.9849 15.752 32.9849 13.976C32.985 12.2 34.4298 10.7551 36.2057 10.7551C37.9817 10.7551 39.4265 12.2 39.4265 13.976C39.4265 15.752 37.9817 17.1968 36.2057 17.1968Z" fill="white"/>
<path d="M81.7695 10.9375C83.7227 10.9375 85.2422 11.375 86.3281 12.25C87.4141 13.125 87.957 14.4023 87.957 16.082C87.957 17.2383 87.6758 18.2031 87.1133 18.9766C86.5586 19.75 85.7969 20.3438 84.8281 20.7578L88.6367 27.8477V28H85.4023L82.0039 21.4727H78.7344V28H75.7109V10.9375H81.7695ZM81.7695 13.375H78.7344V19.0469H81.793C82.832 19.0469 83.6133 18.7852 84.1367 18.2617C84.6602 17.7305 84.9219 17.0586 84.9219 16.2461C84.9219 15.3711 84.668 14.6758 84.1602 14.1602C83.6523 13.6367 82.8555 13.375 81.7695 13.375Z" fill="white"/>
<path d="M97.1084 28.2344C95.8506 28.2344 94.7647 27.9648 93.8506 27.4258C92.9366 26.8789 92.2334 26.1445 91.7412 25.2227C91.2491 24.293 91.003 23.2539 91.003 22.1055V21.625C91.003 20.3047 91.253 19.1562 91.753 18.1797C92.253 17.1953 92.9366 16.4336 93.8037 15.8945C94.6787 15.3555 95.667 15.0859 96.7686 15.0859C97.9873 15.0859 98.9991 15.3516 99.8037 15.8828C100.608 16.4062 101.21 17.1367 101.608 18.0742C102.007 19.0039 102.206 20.082 102.206 21.3086V22.5625H93.9327C94.0108 23.5234 94.3428 24.3203 94.9287 24.9531C95.5147 25.5781 96.2998 25.8906 97.2842 25.8906C97.9639 25.8906 98.5655 25.7578 99.0889 25.4922C99.6123 25.2266 100.069 24.8438 100.46 24.3438L101.983 25.8672C101.577 26.4688 100.976 27.0156 100.179 27.5078C99.3819 27.9922 98.3584 28.2344 97.1084 28.2344ZM96.7569 17.418C95.9834 17.418 95.3623 17.6914 94.8936 18.2383C94.4248 18.7852 94.1241 19.5273 93.9912 20.4648H99.335V20.2422C99.3194 19.75 99.2217 19.2891 99.042 18.8594C98.8702 18.4297 98.5967 18.082 98.2217 17.8164C97.8545 17.5508 97.3662 17.418 96.7569 17.418Z" fill="white"/>
<path d="M112.424 24.543C112.424 24.2773 112.354 24.0352 112.213 23.8164C112.072 23.5898 111.807 23.3867 111.416 23.207C111.025 23.0273 110.455 22.8555 109.705 22.6914C108.361 22.4102 107.268 21.9805 106.424 21.4023C105.588 20.8242 105.17 20 105.17 18.9297C105.17 18.2422 105.365 17.6094 105.756 17.0312C106.154 16.4453 106.721 15.9766 107.455 15.625C108.19 15.2656 109.065 15.0859 110.08 15.0859C111.143 15.0859 112.057 15.2656 112.822 15.625C113.588 15.9766 114.174 16.457 114.58 17.0664C114.994 17.668 115.201 18.3516 115.201 19.1172H112.295C112.295 18.6172 112.107 18.1797 111.732 17.8047C111.365 17.4219 110.811 17.2305 110.068 17.2305C109.373 17.2305 108.854 17.3906 108.51 17.7109C108.166 18.0234 107.994 18.3867 107.994 18.8008C107.994 19.2148 108.17 19.5508 108.522 19.8086C108.881 20.0586 109.565 20.2891 110.572 20.5C112.025 20.8047 113.17 21.2422 114.006 21.8125C114.85 22.375 115.272 23.2383 115.272 24.4023C115.272 25.1445 115.057 25.8047 114.627 26.3828C114.205 26.9609 113.607 27.4141 112.834 27.7422C112.061 28.0703 111.154 28.2344 110.115 28.2344C108.951 28.2344 107.971 28.0273 107.174 27.6133C106.377 27.1992 105.772 26.668 105.358 26.0195C104.951 25.3711 104.748 24.7031 104.748 24.0156H107.549C107.588 24.7734 107.873 25.3086 108.404 25.6211C108.936 25.9336 109.518 26.0898 110.15 26.0898C110.893 26.0898 111.455 25.9453 111.838 25.6562C112.229 25.3594 112.424 24.9883 112.424 24.543Z" fill="white"/>
<path d="M118.681 12.0039C118.681 11.5586 118.825 11.1914 119.114 10.9023C119.403 10.6055 119.806 10.457 120.321 10.457C120.837 10.457 121.243 10.6055 121.54 10.9023C121.837 11.1914 121.985 11.5586 121.985 12.0039C121.985 12.4414 121.837 12.8086 121.54 13.1055C121.243 13.3945 120.837 13.5391 120.321 13.5391C119.806 13.5391 119.403 13.3945 119.114 13.1055C118.825 12.8086 118.681 12.4414 118.681 12.0039ZM121.775 28H118.868V15.3203H121.775V28Z" fill="white"/>
<path d="M125.278 21.5547C125.278 20.2734 125.477 19.1484 125.875 18.1797C126.281 17.2031 126.856 16.4453 127.598 15.9062C128.34 15.3594 129.231 15.0859 130.27 15.0859C130.957 15.0859 131.567 15.2109 132.098 15.4609C132.637 15.7031 133.106 16.0508 133.504 16.5039V10H136.41V28H133.774L133.633 26.6523C133.235 27.1523 132.754 27.543 132.192 27.8242C131.629 28.0977 130.981 28.2344 130.246 28.2344C129.223 28.2344 128.34 27.957 127.598 27.4023C126.856 26.8398 126.281 26.0742 125.875 25.1055C125.477 24.1367 125.278 23.0352 125.278 21.8008V21.5547ZM128.184 21.8008C128.184 22.5508 128.278 23.2344 128.465 23.8516C128.653 24.4609 128.949 24.9492 129.356 25.3164C129.77 25.6758 130.313 25.8555 130.985 25.8555C131.61 25.8555 132.125 25.7148 132.531 25.4336C132.945 25.1523 133.27 24.7812 133.504 24.3203V18.9648C133.27 18.5039 132.945 18.1406 132.531 17.875C132.125 17.6016 131.617 17.4648 131.008 17.4648C130.336 17.4648 129.793 17.6484 129.379 18.0156C128.965 18.3828 128.66 18.875 128.465 19.4922C128.278 20.1094 128.184 20.7969 128.184 21.5547V21.8008Z" fill="white"/>
<path d="M145.925 28.2344C144.667 28.2344 143.581 27.9648 142.667 27.4258C141.753 26.8789 141.05 26.1445 140.558 25.2227C140.066 24.293 139.82 23.2539 139.82 22.1055V21.625C139.82 20.3047 140.07 19.1562 140.57 18.1797C141.07 17.1953 141.753 16.4336 142.62 15.8945C143.495 15.3555 144.484 15.0859 145.585 15.0859C146.804 15.0859 147.816 15.3516 148.62 15.8828C149.425 16.4062 150.027 17.1367 150.425 18.0742C150.823 19.0039 151.023 20.082 151.023 21.3086V22.5625H142.749C142.827 23.5234 143.159 24.3203 143.745 24.9531C144.331 25.5781 145.116 25.8906 146.101 25.8906C146.78 25.8906 147.382 25.7578 147.905 25.4922C148.429 25.2266 148.886 24.8438 149.277 24.3438L150.8 25.8672C150.394 26.4688 149.792 27.0156 148.995 27.5078C148.198 27.9922 147.175 28.2344 145.925 28.2344ZM145.573 17.418C144.8 17.418 144.179 17.6914 143.71 18.2383C143.241 18.7852 142.941 19.5273 142.808 20.4648H148.152V20.2422C148.136 19.75 148.038 19.2891 147.859 18.8594C147.687 18.4297 147.413 18.082 147.038 17.8164C146.671 17.5508 146.183 17.418 145.573 17.418Z" fill="white"/>
<path d="M157.033 28H154.127V15.3203H156.858L156.951 16.8203C157.397 16.2656 157.932 15.8398 158.557 15.543C159.182 15.2383 159.877 15.0859 160.643 15.0859C161.862 15.0859 162.838 15.4453 163.573 16.1641C164.315 16.875 164.686 18.0977 164.686 19.832V28H161.768V19.8086C161.768 18.9258 161.576 18.3164 161.194 17.9805C160.819 17.6367 160.272 17.4648 159.553 17.4648C158.975 17.4648 158.471 17.6055 158.041 17.8867C157.619 18.1602 157.283 18.5312 157.033 19V28Z" fill="white"/>
<path d="M174.376 17.4648H172.126V24.4258C172.126 25.0039 172.247 25.3828 172.49 25.5625C172.732 25.7344 173.056 25.8203 173.462 25.8203C173.658 25.8203 173.845 25.8086 174.025 25.7852C174.204 25.7617 174.349 25.7383 174.458 25.7148V27.9531C174.224 28.0312 173.95 28.0977 173.638 28.1523C173.325 28.207 172.966 28.2344 172.56 28.2344C171.583 28.2344 170.783 27.9648 170.158 27.4258C169.533 26.8789 169.22 25.9492 169.22 24.6367V17.4648H167.181V15.3203H169.22V12.2148H172.126V15.3203H174.376V17.4648Z" fill="white"/>
<path d="M184.559 24.543C184.559 24.2773 184.489 24.0352 184.348 23.8164C184.207 23.5898 183.942 23.3867 183.551 23.207C183.16 23.0273 182.59 22.8555 181.84 22.6914C180.496 22.4102 179.403 21.9805 178.559 21.4023C177.723 20.8242 177.305 20 177.305 18.9297C177.305 18.2422 177.5 17.6094 177.891 17.0312C178.289 16.4453 178.856 15.9766 179.59 15.625C180.325 15.2656 181.2 15.0859 182.215 15.0859C183.278 15.0859 184.192 15.2656 184.957 15.625C185.723 15.9766 186.309 16.457 186.715 17.0664C187.129 17.668 187.336 18.3516 187.336 19.1172H184.43C184.43 18.6172 184.243 18.1797 183.868 17.8047C183.5 17.4219 182.946 17.2305 182.203 17.2305C181.508 17.2305 180.989 17.3906 180.645 17.7109C180.301 18.0234 180.129 18.3867 180.129 18.8008C180.129 19.2148 180.305 19.5508 180.657 19.8086C181.016 20.0586 181.7 20.2891 182.707 20.5C184.16 20.8047 185.305 21.2422 186.141 21.8125C186.985 22.375 187.407 23.2383 187.407 24.4023C187.407 25.1445 187.192 25.8047 186.762 26.3828C186.34 26.9609 185.743 27.4141 184.969 27.7422C184.196 28.0703 183.289 28.2344 182.25 28.2344C181.086 28.2344 180.106 28.0273 179.309 27.6133C178.512 27.1992 177.907 26.668 177.493 26.0195C177.086 25.3711 176.883 24.7031 176.883 24.0156H179.684C179.723 24.7734 180.008 25.3086 180.539 25.6211C181.071 25.9336 181.653 26.0898 182.285 26.0898C183.028 26.0898 183.59 25.9453 183.973 25.6562C184.364 25.3594 184.559 24.9883 184.559 24.543Z" fill="white"/>
</svg>
