<?xml version="1.0" encoding="utf-8"?>
<!-- Generator: Adobe Illustrator 24.1.1, SVG Export Plug-In . SVG Version: 6.00 Build 0)  -->
<svg version="1.1" id="Capa_1" xmlns="http://www.w3.org/2000/svg" xmlns:xlink="http://www.w3.org/1999/xlink" x="0px" y="0px"
	 viewBox="0 0 512 512" style="enable-background:new 0 0 512 512;" xml:space="preserve">
<style type="text/css">
	.st0{fill:#FFFFFF;}
</style>
<g>
	<g>
		<path class="st0" d="M409.1,63.4C368.2,22.5,313.8,0,256,0S143.8,22.5,102.9,63.4C62,104.3,39.5,158.7,39.5,216.5
			c0,117,110.6,214.3,170.1,266.6c8.3,7.3,15.4,13.5,21.1,18.8c7.1,6.7,16.3,10,25.4,10c9.1,0,18.3-3.3,25.4-10
			c5.7-5.3,12.8-11.6,21.1-18.8c59.4-52.3,170.1-149.6,170.1-266.6C472.5,158.7,450,104.3,409.1,63.4z M282.7,460.7
			c-8.4,7.4-15.7,13.8-21.7,19.5c-2.8,2.6-7.1,2.6-9.8,0c-6-5.6-13.3-12-21.7-19.5C173.5,411.5,69.4,320,69.4,216.5
			C69.4,113.7,153.1,30,256,30c102.9,0,186.6,83.7,186.6,186.6C442.6,320,338.5,411.5,282.7,460.7z"/>
	</g>
</g>
<g>
	<g>
		<path class="st0" d="M256,112.9c-52.6,0-95.4,42.8-95.4,95.4s42.8,95.4,95.4,95.4s95.4-42.8,95.4-95.4S308.6,112.9,256,112.9z
			 M256,273.8c-36.1,0-65.4-29.4-65.4-65.4s29.4-65.4,65.4-65.4s65.4,29.4,65.4,65.4S292.1,273.8,256,273.8z"/>
	</g>
</g>
</svg>
