<svg xmlns="http://www.w3.org/2000/svg" viewBox="0 0 130.86 41"><defs><style>.cls-1{fill:#6c6df5;}.cls-2{fill:#373b5a;}</style></defs><g id="Layer_2" data-name="Layer 2"><g id="Layer_1-2" data-name="Layer 1"><path class="cls-1" d="M22.73,41H9.06A9.06,9.06,0,0,1,0,32V9.06A9.06,9.06,0,0,1,9.06,0H22.73a9.06,9.06,0,0,1,9.06,9.06v2.41a1.25,1.25,0,0,1-2.5,0V9.06A6.56,6.56,0,0,0,22.73,2.5H9.06A6.56,6.56,0,0,0,2.5,9.06V32A6.56,6.56,0,0,0,9.06,38.5H22.73A6.56,6.56,0,0,0,29.29,32V29.16a1.25,1.25,0,0,1,2.5,0V32A9.06,9.06,0,0,1,22.73,41Z"/><path class="cls-1" d="M41.41,21.75h-26a1.25,1.25,0,0,1,0-2.5H41.41a1.25,1.25,0,0,1,0,2.5Z"/><path class="cls-1" d="M41.41,21.75a1.24,1.24,0,0,1-.88-.36l-7.07-7.07a1.25,1.25,0,0,1,1.77-1.77l7.07,7.07a1.25,1.25,0,0,1,0,1.77A1.28,1.28,0,0,1,41.41,21.75Z"/><path class="cls-1" d="M34.35,28.82a1.25,1.25,0,0,1-.89-.37,1.27,1.27,0,0,1,0-1.77l7.07-7.06a1.25,1.25,0,0,1,1.77,1.77l-7.07,7.06A1.21,1.21,0,0,1,34.35,28.82Z"/><path class="cls-2" d="M78,25.8H75.86V13.91H78Zm5.38,0h-6V24.11h6Z"/><path class="cls-2" d="M85.18,21.3A5.22,5.22,0,0,1,85.67,19a3.82,3.82,0,0,1,3.62-2.19,4,4,0,0,1,2.23.59A3.84,3.84,0,0,1,92.93,19a5.36,5.36,0,0,1,.49,2.31v.17a5.32,5.32,0,0,1-.49,2.3,3.87,3.87,0,0,1-1.41,1.61,4,4,0,0,1-2.21.58,4.09,4.09,0,0,1-2.23-.58,3.94,3.94,0,0,1-1.41-1.61,5.18,5.18,0,0,1-.49-2.3Zm2,.17a4.33,4.33,0,0,0,.22,1.43A2.26,2.26,0,0,0,88.11,24a1.8,1.8,0,0,0,1.2.39A1.75,1.75,0,0,0,90.49,24a2.26,2.26,0,0,0,.68-1.05,4.33,4.33,0,0,0,.22-1.43V21.3a4.33,4.33,0,0,0-.22-1.43,2.21,2.21,0,0,0-.68-1.05,2,2,0,0,0-2.39,0,2.29,2.29,0,0,0-.68,1.05,4.62,4.62,0,0,0-.21,1.43Z"/><path class="cls-2" d="M95.54,21.31A6.13,6.13,0,0,1,96,19a3.67,3.67,0,0,1,1.23-1.59,3.56,3.56,0,0,1,3.37-.25,2.72,2.72,0,0,1,1,.9,4.57,4.57,0,0,1,.64,1.39,11,11,0,0,1,.35,1.78v.47a8.37,8.37,0,0,1-.55,2.23,3.64,3.64,0,0,1-1.12,1.53,2.91,2.91,0,0,1-1.83.55,3.06,3.06,0,0,1-1.87-.58A3.67,3.67,0,0,1,96,23.78a5.75,5.75,0,0,1-.44-2.3ZM103.39,17v8.59a3.85,3.85,0,0,1-.52,2,3.33,3.33,0,0,1-1.43,1.27,4.82,4.82,0,0,1-2.11.43,5.35,5.35,0,0,1-1.12-.14,5,5,0,0,1-1.2-.46,3.14,3.14,0,0,1-1-.84L97,26.62a3.16,3.16,0,0,0,1,.81,2.77,2.77,0,0,0,1.2.27,2.16,2.16,0,0,0,1.55-.55,2.09,2.09,0,0,0,.57-1.57V19l.19-2Zm-5.82,4.52a4.51,4.51,0,0,0,.21,1.42,2.16,2.16,0,0,0,.66,1,1.68,1.68,0,0,0,1.15.38,1.94,1.94,0,0,0,1.12-.29,2,2,0,0,0,.67-.78,4,4,0,0,0,.33-1.12V20.73a4.19,4.19,0,0,0-.19-.91,2.28,2.28,0,0,0-.4-.72,1.69,1.69,0,0,0-.64-.47,2,2,0,0,0-.88-.17,1.68,1.68,0,0,0-1.15.38,2.16,2.16,0,0,0-.66,1,4.46,4.46,0,0,0-.22,1.45Z"/><path class="cls-2" d="M105.85,21.3a5.22,5.22,0,0,1,.49-2.31,3.77,3.77,0,0,1,1.41-1.6A3.94,3.94,0,0,1,110,16.8a4,4,0,0,1,2.23.59A3.91,3.91,0,0,1,113.6,19a5.36,5.36,0,0,1,.48,2.31v.17a5.32,5.32,0,0,1-.48,2.3,3.94,3.94,0,0,1-1.41,1.61A4,4,0,0,1,110,26a4.08,4.08,0,0,1-2.22-.58,3.87,3.87,0,0,1-1.41-1.61,5.18,5.18,0,0,1-.49-2.3Zm2,.17a4.61,4.61,0,0,0,.22,1.43,2.36,2.36,0,0,0,.69,1.05,1.76,1.76,0,0,0,1.19.39,1.78,1.78,0,0,0,1.19-.39,2.34,2.34,0,0,0,.68-1.05,4.61,4.61,0,0,0,.22-1.43V21.3a4.61,4.61,0,0,0-.22-1.43,2.29,2.29,0,0,0-.68-1.05,1.81,1.81,0,0,0-1.2-.4,1.78,1.78,0,0,0-1.19.4,2.21,2.21,0,0,0-.68,1.05,4.61,4.61,0,0,0-.22,1.43Z"/><path class="cls-2" d="M122.81,21.85a6.08,6.08,0,0,1-.35,2.12,3.11,3.11,0,0,1-1.1,1.46,3.16,3.16,0,0,1-1.92.53,3,3,0,0,1-2.12-.76,3.39,3.39,0,0,1-.81-2.53V17h2v5.73a2,2,0,0,0,.19,1,1.17,1.17,0,0,0,.51.5,1.62,1.62,0,0,0,.7.14,2.29,2.29,0,0,0,1.31-.32,1.82,1.82,0,0,0,.68-.88,3.71,3.71,0,0,0,.2-1.24Zm-1-4.89h2V25.8H122l-.12-2.09Z"/><path class="cls-2" d="M130.8,18.46h-5V17h5Zm-1.57-3.66v8.51a1.22,1.22,0,0,0,.12.61.59.59,0,0,0,.33.29,1.45,1.45,0,0,0,.49.07l.39,0,.3-.05v1.56a4.76,4.76,0,0,1-.57.14,5.32,5.32,0,0,1-.75.05,2.87,2.87,0,0,1-1.21-.24,1.81,1.81,0,0,1-.82-.8,3,3,0,0,1-.3-1.46V14.8Z"/></g></g></svg>